<?xml version="1.0" standalone="no"?>
<!DOCTYPE svg PUBLIC "-//W3C//DTD SVG 20010904//EN"
 "http://www.w3.org/TR/2001/REC-SVG-20010904/DTD/svg10.dtd">
<svg version="1.0" xmlns="http://www.w3.org/2000/svg"
 width="197.000000pt" height="50.000000pt" viewBox="0 0 197.000000 50.000000"
 preserveAspectRatio="xMidYMid meet">
<metadata>
Created by potrace 1.10, written by Peter Selinger 2001-2011
</metadata>
<g transform="translate(0.000000,50.000000) scale(0.100000,-0.100000)"
fill="#000000" stroke="none">
<path d="M117 476 c-44 -27 -60 -42 -32 -31 11 4 43 8 70 8 44 -1 46 0 15 5
l-35 7 25 18 c37 26 2 21 -43 -7z"/>
<path d="M570 486 c0 -8 -12 -19 -27 -24 -21 -8 7 -11 116 -11 79 -1 141 2
138 6 -4 3 -21 6 -39 6 -27 -1 -29 1 -13 7 16 7 12 9 -18 9 -23 1 -36 -3 -32
-9 3 -5 2 -10 -4 -10 -5 0 -12 6 -14 13 -4 10 -6 10 -6 0 -2 -23 -21 -14 -22
10 0 12 -3 16 -6 10 -2 -7 -11 -13 -19 -13 -9 0 -12 5 -8 13 4 6 -3 3 -16 -8
-20 -17 -23 -18 -17 -2 4 9 2 17 -3 17 -6 0 -10 -6 -10 -14z"/>
<path d="M950 465 c3 -90 -12 -312 -22 -332 -8 -16 -8 -26 1 -37 6 -7 16 -33
20 -57 l9 -44 1 47 c1 26 6 50 11 53 6 4 8 10 6 13 -2 4 14 6 37 5 l42 -2 -35
8 c-62 13 -61 7 -59 198 0 96 -2 178 -6 181 -3 4 -6 -11 -5 -33z"/>
<path d="M1260 489 c0 -8 -17 -10 -49 -7 -28 3 -56 1 -63 -3 -9 -6 -3 -9 17
-10 l30 -1 -30 -8 c-24 -6 -18 -8 32 -9 41 -1 63 3 66 12 4 10 6 10 6 0 1 -9
21 -13 66 -13 64 0 65 0 64 28 0 24 -1 25 -9 7 -7 -17 -9 -17 -9 -2 -1 9 -5
17 -11 17 -5 0 -6 -8 -3 -17 6 -15 4 -16 -9 -5 -8 7 -22 10 -31 6 -8 -3 -18 0
-22 6 -6 9 -10 9 -16 -1 -6 -10 -9 -11 -9 -1 0 6 -4 12 -10 12 -5 0 -10 -5
-10 -11z"/>
<path d="M1828 480 l23 -19 -38 -4 c-37 -4 -37 -4 7 -5 25 -1 67 -3 93 -6 38
-3 50 -1 54 11 8 20 -23 43 -56 43 l-26 -1 28 -15 c16 -9 27 -18 24 -21 -3 -2
-15 1 -27 7 -15 8 -20 8 -16 1 11 -18 -9 -13 -37 9 -33 26 -60 26 -29 0z"/>
<path d="M1411 473 c-1 -23 1 -23 112 -21 l112 1 -85 7 c-47 4 -95 5 -107 3
-14 -2 -23 3 -26 14 -4 14 -5 13 -6 -4z"/>
<path d="M178 423 c61 -2 163 -2 225 0 61 1 11 3 -113 3 -124 0 -174 -2 -112
-3z"/>
<path d="M535 420 c16 -7 17 -9 3 -9 -11 -1 -18 -12 -21 -33 l-4 -33 -1 33
c-2 32 -2 32 -54 31 -39 0 -48 -3 -33 -9 11 -5 14 -9 6 -9 -8 -1 -19 -8 -26
-17 -7 -10 -29 -18 -54 -20 -23 -1 -50 -8 -59 -15 -9 -6 -5 0 11 14 33 31 33
32 6 34 -13 1 -23 -5 -26 -18 -7 -25 -33 -25 -33 1 0 15 -7 20 -27 22 -16 1
-1 4 32 8 43 5 20 7 -80 7 -100 0 -123 -2 -80 -7 33 -4 53 -7 43 -8 -9 -1 -19
-8 -21 -14 -4 -10 -6 -10 -6 0 -1 6 -6 12 -13 12 -6 0 -8 -3 -5 -6 10 -10 -13
-46 -26 -42 -7 2 -25 -9 -41 -24 -28 -28 -28 -28 -5 -28 12 0 40 12 61 26 21
15 41 25 43 22 8 -8 -69 -58 -91 -59 -14 0 -11 -3 10 -11 22 -8 30 -7 37 3 6
11 9 10 14 -3 4 -10 4 -22 0 -28 -3 -5 1 -10 10 -10 9 0 13 -5 10 -10 -3 -6
-32 -11 -63 -12 l-57 -2 70 -6 70 -6 -67 -2 c-94 -3 -87 -22 7 -22 l75 0 0
100 c0 93 1 100 20 100 19 0 20 -7 20 -100 0 -93 1 -100 20 -100 18 0 20 7 20
75 0 68 2 75 20 75 11 0 20 -5 20 -12 0 -9 3 -9 12 0 18 18 65 15 77 -5 10
-17 12 -17 25 0 7 9 18 17 25 17 6 0 11 9 11 19 0 10 7 22 16 25 23 9 24 8 24
-19 0 -16 6 -25 15 -25 8 0 15 -7 15 -15 0 -8 -7 -15 -15 -15 -11 0 -15 -12
-15 -50 0 -38 4 -50 15 -50 8 0 15 -7 15 -16 0 -11 -8 -14 -32 -12 -33 3 -33
3 -36 66 -3 53 -6 62 -22 62 -22 0 -29 -19 -28 -78 0 -23 -2 -45 -4 -48 -3 -3
-34 -5 -69 -5 -124 1 -299 -12 -299 -22 0 -6 102 -7 297 -3 164 3 303 5 308 5
6 0 73 -3 150 -5 115 -4 144 -3 160 10 18 14 19 15 2 16 -10 0 -15 5 -12 10 4
6 -4 6 -19 -1 -57 -27 -105 21 -102 101 2 48 11 70 27 70 6 0 6 -7 -1 -19 -15
-28 -12 -35 6 -17 18 19 55 21 72 4 9 -9 12 -4 12 25 0 31 4 37 21 37 16 0 20
5 17 27 -4 37 -34 39 -42 2 -4 -20 -10 -27 -21 -23 -8 3 -12 10 -9 15 3 5 0 9
-5 9 -22 0 -11 -39 12 -43 12 -2 -9 -5 -48 -6 -38 -2 -64 -5 -57 -8 10 -4 9
-8 -5 -18 -15 -12 -16 -17 -5 -34 50 -84 -55 -175 -123 -106 -33 33 -33 78 1
112 21 21 32 25 65 20 34 -4 39 -2 39 14 0 22 -20 25 -39 7 -10 -11 -11 -9 -5
6 6 16 4 18 -9 13 -13 -5 -17 0 -18 21 l-1 27 -8 -30 c-8 -30 -8 -30 -9 7 -1
29 2 36 14 32 8 -4 15 -1 15 5 0 7 -28 11 -82 10 -56 0 -76 -3 -63 -9z m15
-29 c0 -4 11 -6 23 -4 14 3 31 -2 40 -11 14 -15 16 -14 20 2 4 13 5 11 6 -5 1
-20 -8 -27 -31 -25 -3 1 -9 -5 -12 -13 -3 -8 -1 -15 4 -15 5 0 7 -7 4 -15 -4
-8 -14 -15 -24 -15 -23 0 -30 -19 -30 -81 0 -42 -3 -49 -20 -49 -18 0 -20 7
-20 80 0 44 4 80 8 80 5 0 14 12 20 26 7 14 8 23 2 19 -5 -3 -10 3 -10 14 0
12 5 21 10 21 6 0 10 -4 10 -9z"/>
<path d="M556 346 c-16 -25 -10 -41 11 -28 14 10 27 52 15 52 -5 0 -17 -11
-26 -24z"/>
<path d="M690 418 c0 -5 25 -8 55 -8 30 0 55 4 55 8 0 5 -25 8 -55 8 -30 -1
-55 -4 -55 -8z"/>
<path d="M989 423 c-1 -5 -1 -17 0 -28 2 -17 0 -17 -8 -5 -9 12 -11 11 -11 -7
0 -16 6 -23 20 -23 16 0 20 7 20 35 0 19 -4 35 -10 35 -5 0 -11 -3 -11 -7z"/>
<path d="M1270 415 c0 -8 -9 -15 -20 -15 -11 0 -20 5 -20 10 0 6 -5 10 -11 10
-5 0 -8 -4 -4 -9 3 -5 -9 -11 -27 -13 -18 -2 -32 -8 -31 -13 1 -6 -7 -11 -18
-11 -21 0 -25 12 -6 19 6 3 2 6 -10 6 -13 1 -23 -6 -26 -16 -4 -17 -5 -17 -6
0 -1 24 -21 22 -21 -3 0 -18 7 -20 78 -21 52 0 71 -3 57 -9 -11 -5 -14 -9 -7
-9 7 -1 10 -5 7 -11 -4 -6 6 -10 24 -10 35 0 68 -27 52 -43 -7 -7 -18 -7 -35
3 -32 17 -56 0 -56 -40 0 -38 25 -58 51 -41 11 6 30 9 42 5 l21 -7 -23 -18
c-46 -37 -131 -11 -131 41 0 8 -6 39 -14 68 -7 29 -9 52 -5 52 14 0 23 -24 20
-50 l-3 -25 20 25 c13 16 17 29 11 36 -5 6 -6 14 -2 17 3 4 -19 7 -51 7 -36 0
-55 -4 -51 -10 4 -6 -8 -10 -30 -10 -22 0 -34 4 -30 10 4 6 -5 10 -19 10 l-26
0 0 -100 c0 -84 3 -101 18 -108 24 -13 982 -15 982 -2 0 6 -21 10 -47 11 -197
4 -246 9 -260 29 l-14 20 -26 -20 c-80 -63 -180 44 -108 115 39 40 107 30 139
-20 10 -15 13 -24 7 -21 -17 11 -14 -37 4 -60 13 -17 14 -12 15 54 0 65 2 72
20 72 11 0 20 -5 20 -12 0 -9 3 -9 12 0 15 15 61 15 76 0 7 -7 12 -39 12 -75
l0 -63 75 0 c94 0 101 19 8 22 l-68 2 70 6 70 6 -57 2 c-31 1 -60 7 -63 12 -3
6 -2 10 2 10 5 0 7 17 5 37 -4 35 -42 83 -65 83 -5 0 -7 9 -4 20 3 13 0 20 -9
20 -8 0 -13 -5 -12 -11 2 -6 -3 -14 -11 -17 -10 -3 -12 0 -8 12 5 12 0 16 -18
16 -31 0 -31 -7 -2 -39 12 -14 15 -20 7 -14 -8 5 -51 11 -95 13 -44 1 -90 2
-102 3 -17 1 -23 7 -23 24 0 13 5 23 10 23 6 0 10 -7 10 -15 0 -18 17 -20 22
-3 6 17 38 19 38 2 0 -9 5 -12 10 -9 6 4 8 10 5 15 -4 6 71 11 177 13 l183 2
-230 5 -230 4 220 6 220 6 -314 2 c-275 2 -312 0 -307 -13 3 -8 1 -15 -3 -15
-5 0 -11 7 -15 15 -3 8 -15 15 -26 15 -11 0 -20 -7 -20 -15z m40 -32 c0 -8
-25 -28 -37 -30 -6 -1 -14 5 -17 13 -4 12 -2 15 9 10 8 -3 15 -2 15 3 0 4 7 8
15 8 8 0 15 -2 15 -4z m156 -7 c3 -8 12 -12 20 -9 10 4 12 0 8 -11 -3 -9 -1
-23 6 -31 7 -9 10 -18 8 -21 -3 -3 -14 6 -25 20 -22 27 -50 22 -30 -5 7 -9 19
-18 27 -22 12 -4 11 -6 -2 -6 -15 -1 -18 -11 -18 -66 0 -59 -2 -65 -21 -65
-20 0 -21 5 -18 90 2 49 0 92 -4 96 -13 13 -7 24 14 24 11 0 17 5 14 10 -3 6
-1 10 5 10 6 0 13 -6 16 -14z m-96 -31 c0 -16 6 -25 15 -25 8 0 15 -7 15 -15
0 -8 -7 -15 -15 -15 -11 0 -15 -12 -15 -50 0 -38 4 -50 15 -50 8 0 15 -7 15
-16 0 -11 -8 -14 -32 -12 -33 3 -33 3 -36 66 -2 46 -7 62 -17 62 -8 0 -15 7
-15 15 0 8 7 15 16 15 10 0 14 6 10 15 -3 8 2 19 12 24 26 16 32 13 32 -14z
m-350 -85 c0 -45 4 -62 15 -66 28 -11 45 16 45 72 0 47 2 54 20 54 18 0 20 -7
20 -79 l0 -78 -55 -1 c-74 -1 -85 12 -85 94 0 57 2 64 20 64 18 0 20 -7 20
-60z"/>
<path d="M680 386 c0 -20 23 -26 97 -26 55 0 64 2 59 16 -3 9 -6 18 -6 20 0
12 -19 1 -23 -13 -4 -17 -5 -17 -6 0 0 9 -4 17 -7 17 -4 0 -13 -8 -20 -17 -13
-17 -13 -17 -14 0 0 18 -40 25 -40 7 0 -5 -8 -10 -17 -10 -15 0 -16 2 -3 10
13 8 12 10 -2 10 -10 0 -18 -6 -18 -14z"/>
<path d="M7 383 c-18 -17 -5 -32 26 -30 27 2 33 6 29 19 -4 18 -42 25 -55 11z"/>
<path d="M1900 362 c0 -13 49 -61 63 -62 12 0 8 27 -6 38 -6 6 -19 12 -27 14
-8 2 -18 8 -22 13 -5 6 -8 5 -8 -3z"/>
<path d="M1890 318 c0 -17 61 -59 73 -51 9 6 -18 32 -55 54 -13 7 -18 6 -18
-3z"/>
<path d="M282 278 c-6 -6 -12 -34 -12 -60 0 -47 1 -48 30 -48 l31 0 -3 57 c-3
60 -19 78 -46 51z"/>
<path d="M666 274 c-19 -18 -20 -38 -6 -65 27 -49 86 4 62 56 -13 29 -34 32
-56 9z"/>
<path d="M840 275 c-15 -18 -4 -74 16 -82 21 -8 44 16 44 46 0 45 -35 66 -60
36z"/>
<path d="M1538 265 c-8 -19 -8 -31 0 -50 26 -56 85 -10 63 48 -14 35 -47 36
-63 2z"/>
<path d="M1732 278 c-6 -6 -12 -34 -12 -60 0 -47 1 -48 30 -48 l31 0 -3 57
c-3 60 -19 78 -46 51z"/>
<path d="M93 113 c54 -2 139 -2 190 0 51 1 7 3 -98 3 -104 0 -146 -2 -92 -3z"/>
<path d="M1623 113 c64 -2 170 -2 235 0 64 1 11 3 -118 3 -129 0 -182 -2 -117
-3z"/>
<path d="M230 93 c136 -2 239 -8 244 -13 7 -7 -74 -10 -232 -10 -133 0 -242
-4 -242 -9 0 -5 176 -8 400 -8 394 0 400 1 400 21 0 20 0 20 15 0 8 -11 15
-14 15 -6 0 6 6 12 14 12 8 0 18 5 21 10 4 7 -142 9 -432 8 -246 -2 -335 -4
-203 -5z"/>
<path d="M886 76 c6 -26 -10 -37 -19 -13 -8 17 -27 -12 -20 -30 3 -7 0 -13 -6
-13 -6 0 -11 5 -11 10 0 18 -18 11 -23 -9 -4 -17 0 -19 32 -17 27 2 36 7 35
19 -1 9 2 17 7 17 5 0 9 -9 9 -20 0 -11 7 -20 16 -20 24 0 16 94 -9 98 -15 3
-17 -1 -11 -22z"/>
<path d="M986 93 c-3 -3 -5 -27 -4 -52 l1 -46 7 45 7 45 2 -45 c3 -38 4 -41
11 -20 8 24 8 24 9 3 1 -20 6 -23 41 -23 30 0 40 4 40 16 0 10 -7 14 -22 12
-19 -2 -24 2 -26 26 -3 23 0 28 13 22 9 -3 19 -6 22 -6 3 0 -1 -7 -8 -16 -12
-15 -11 -16 6 -11 11 3 41 9 68 13 34 4 47 11 48 23 0 13 2 14 6 1 9 -23 25
-30 44 -19 11 6 20 5 24 -1 7 -12 695 -10 695 2 0 4 -118 8 -262 8 -172 0
-259 3 -252 10 6 6 115 11 264 13 140 1 34 3 -236 4 -270 1 -494 -1 -498 -4z"/>
<path d="M30 33 c19 -2 40 -9 45 -16 7 -9 69 -12 217 -12 113 0 201 3 195 7
-18 11 17 20 55 16 18 -3 44 -1 58 3 14 4 -117 7 -290 6 -173 0 -299 -2 -280
-4z"/>
<path d="M728 31 c8 -4 13 -12 12 -17 0 -5 9 -11 22 -12 18 -3 20 -1 10 10 -6
8 -9 18 -5 21 3 4 -7 7 -23 7 -20 0 -25 -3 -16 -9z"/>
<path d="M1127 20 c-4 -15 0 -20 14 -20 10 0 19 7 19 14 0 11 15 16 53 19 50
3 49 3 -14 5 -59 2 -67 0 -72 -18z"/>
<path d="M1273 34 c4 -4 30 -8 59 -9 34 -1 52 -6 51 -13 -2 -7 6 -12 18 -12
11 0 18 3 16 8 -3 4 96 5 220 2 168 -4 227 -2 235 7 5 7 31 14 56 16 26 2
-112 4 -307 5 -195 1 -351 -1 -348 -4z"/>
</g>
</svg>
