<?xml version="1.0" standalone="no"?>
<!DOCTYPE svg PUBLIC "-//W3C//DTD SVG 20010904//EN"
 "http://www.w3.org/TR/2001/REC-SVG-20010904/DTD/svg10.dtd">
<svg version="1.0" xmlns="http://www.w3.org/2000/svg"
 width="197.000000pt" height="50.000000pt" viewBox="0 0 197.000000 50.000000"
 preserveAspectRatio="xMidYMid meet">
<metadata>
Created by potrace 1.10, written by Peter Selinger 2001-2011
</metadata>
<g transform="translate(0.000000,50.000000) scale(0.100000,-0.100000)"
fill="#000000" stroke="none">
<path d="M117 476 c-44 -27 -60 -42 -32 -31 11 4 43 8 70 8 34 0 39 1 17 4
-33 4 -33 5 -16 24 23 25 8 24 -39 -5z"/>
<path d="M570 486 c0 -8 -12 -19 -27 -24 -21 -8 7 -11 116 -11 79 -1 141 2
138 6 -4 3 -21 6 -39 6 -27 -1 -29 1 -13 7 16 7 12 9 -18 9 -23 1 -36 -3 -32
-9 3 -5 2 -10 -4 -10 -5 0 -12 6 -14 13 -4 10 -6 10 -6 0 -2 -23 -21 -14 -22
10 0 12 -3 16 -6 10 -2 -7 -11 -13 -19 -13 -9 0 -12 5 -8 13 4 6 -3 3 -16 -8
-20 -17 -23 -18 -17 -2 4 9 2 17 -3 17 -6 0 -10 -6 -10 -14z"/>
<path d="M951 450 c-1 -30 -4 -86 -8 -124 -5 -53 -3 -67 6 -62 7 5 10 19 7 34
-3 15 -2 52 2 82 4 30 4 71 1 90 -6 30 -7 28 -8 -20z"/>
<path d="M1256 489 c5 -9 -7 -10 -44 -7 -28 3 -57 1 -64 -3 -9 -6 -3 -9 17
-10 l30 -1 -30 -8 c-24 -6 -18 -8 32 -9 41 -1 63 3 66 12 4 10 6 10 6 0 1 -9
21 -13 66 -13 64 0 65 0 64 28 0 24 -1 25 -9 7 -7 -17 -9 -17 -9 -2 -1 9 -5
17 -11 17 -5 0 -6 -8 -3 -17 6 -15 4 -16 -9 -5 -8 7 -22 10 -31 6 -8 -3 -18 0
-22 6 -6 9 -10 9 -16 -1 -6 -10 -9 -11 -9 -1 0 6 -7 12 -16 12 -9 0 -12 -5 -8
-11z"/>
<path d="M1828 480 l23 -19 -38 -4 c-33 -3 -31 -4 12 -5 28 0 69 -3 93 -6 33
-4 44 -1 49 11 8 20 -23 43 -56 43 l-26 -1 28 -15 c16 -9 27 -18 24 -21 -3 -2
-15 1 -27 7 -15 8 -20 8 -16 1 11 -18 -9 -13 -37 9 -33 26 -60 26 -29 0z"/>
<path d="M1410 473 c0 -23 1 -23 133 -21 112 2 118 3 40 5 -53 2 -93 8 -93 14
0 6 -7 6 -20 -1 -15 -8 -20 -8 -20 2 0 10 -2 10 -9 -1 -7 -11 -11 -10 -20 5
-10 18 -10 18 -11 -3z"/>
<path d="M178 423 c61 -2 163 -2 225 0 61 1 11 3 -113 3 -124 0 -174 -2 -112
-3z"/>
<path d="M535 420 c16 -7 17 -9 3 -9 -11 -1 -18 -12 -21 -33 l-4 -33 -1 33
c-2 30 -5 32 -37 32 -30 0 -35 -3 -35 -22 0 -18 2 -20 9 -9 11 17 51 25 51 11
0 -6 -8 -10 -17 -11 -15 0 -15 -2 2 -9 11 -5 18 -9 15 -10 -39 -11 -159 -15
-169 -5 -2 3 -16 -2 -30 -11 -26 -15 -26 -15 2 10 15 14 27 27 27 28 0 9 -50
7 -51 -2 -1 -6 -2 -14 -3 -20 0 -5 -5 -10 -11 -10 -5 1 -9 10 -7 20 2 13 -3
21 -15 22 -10 0 2 4 27 8 30 5 -3 7 -95 8 -81 0 -132 -3 -120 -8 17 -6 14 -8
-15 -11 -45 -5 -53 -33 -13 -44 l28 -7 -30 -24 -30 -24 26 0 c14 0 34 7 45 15
29 22 43 17 15 -5 -13 -11 -33 -20 -45 -21 -20 0 -20 -1 -1 -8 11 -5 23 -7 28
-4 4 2 7 -5 7 -16 0 -12 7 -21 16 -21 8 0 12 -4 9 -10 -3 -5 -27 -11 -53 -12
-46 -1 -46 -1 13 -8 l60 -7 -57 -1 c-80 -3 -74 -22 7 -22 l65 0 0 80 c0 59 -3
80 -12 79 -39 -5 -58 2 -58 21 0 18 7 20 85 20 78 0 85 -2 85 -20 0 -16 -7
-20 -30 -20 l-30 0 0 -80 0 -80 50 0 50 0 -16 25 c-11 17 -15 37 -11 60 4 24
2 33 -5 29 -7 -5 -8 -2 -4 5 5 7 10 10 13 7 3 -3 15 1 27 9 25 18 60 19 89 4
16 -9 22 -9 25 0 2 6 15 11 28 11 14 0 22 -4 19 -10 -3 -5 -15 -10 -26 -10
-19 0 -27 -24 -11 -34 5 -3 7 -19 4 -36 -6 -41 -46 -71 -96 -71 -47 0 -166 -3
-248 -7 -32 -1 -58 -6 -58 -12 0 -6 156 -9 447 -7 l447 2 7 25 7 25 1 -24 c2
-49 11 -13 15 65 12 195 12 197 -6 200 -10 1 -18 -2 -18 -7 0 -5 5 -9 10 -9 6
0 10 -8 10 -17 0 -15 -2 -16 -10 -3 -8 12 -10 11 -10 -7 0 -13 6 -23 13 -23 8
0 7 -4 -3 -10 -11 -7 -12 -10 -2 -10 10 0 9 -4 -3 -16 -9 -9 -14 -22 -11 -29
6 -16 -21 -29 -29 -15 -3 5 -1 19 5 30 8 16 8 20 -3 20 -11 0 -17 -20 -22 -75
-4 -41 -11 -75 -16 -75 -4 0 -7 6 -4 13 2 6 6 40 10 75 5 52 4 62 -10 62 -9 0
-15 -9 -15 -22 0 -38 -14 -52 -33 -34 -17 18 -57 22 -57 6 0 -12 13 -18 47
-23 50 -7 68 -50 35 -80 -36 -33 -147 -9 -115 24 10 10 18 10 37 -1 25 -13 62
-7 52 9 -3 5 -21 12 -40 15 -19 4 -39 13 -46 21 -18 22 -4 64 24 71 14 3 27
12 30 20 8 21 -31 18 -44 -3 -11 -17 -11 -16 -5 1 3 11 1 22 -5 26 -6 4 26 5
71 2 74 -4 81 -3 76 13 -4 9 -7 19 -7 21 0 12 -19 1 -23 -13 -4 -17 -5 -17 -6
0 0 9 -4 17 -7 17 -4 0 -13 -8 -20 -17 -13 -17 -13 -17 -14 0 0 18 -40 25 -40
7 0 -5 -8 -10 -17 -10 -16 0 -16 2 -3 11 12 9 11 10 -6 6 -12 -2 -28 -1 -35 4
-11 7 -10 9 4 9 9 0 17 5 17 10 0 6 -34 10 -82 9 -56 0 -76 -3 -63 -9z m15
-29 c0 -4 11 -7 25 -6 14 2 27 -1 31 -6 3 -5 14 -9 25 -9 18 0 19 -8 19 -105
0 -98 -1 -105 -20 -105 -19 0 -20 7 -20 103 -1 97 -2 100 -15 70 -8 -18 -19
-33 -25 -33 -6 0 -5 11 5 30 17 34 18 40 6 40 -5 0 -16 -11 -25 -25 -16 -24
-16 -27 4 -52 29 -37 26 -87 -6 -112 -55 -43 -134 -8 -134 59 0 40 39 80 78
80 21 0 32 7 40 26 7 14 8 23 2 19 -5 -3 -10 3 -10 14 0 12 5 21 10 21 6 0 10
-4 10 -9z"/>
<path d="M468 265 c-15 -33 3 -75 32 -75 29 0 47 42 32 75 -7 15 -20 25 -32
25 -12 0 -25 -10 -32 -25z"/>
<path d="M720 420 c-31 -7 -28 -8 23 -9 31 0 57 3 57 7 0 10 -36 11 -80 2z"/>
<path d="M983 423 c-7 -2 -13 -16 -13 -29 0 -21 5 -24 33 -24 33 0 67 -24 67
-48 0 -6 -10 -20 -22 -31 -18 -17 -19 -23 -8 -36 10 -12 15 -13 21 -4 13 22
40 2 33 -25 -8 -33 7 -40 101 -47 l80 -6 -81 0 c-45 0 -86 -3 -92 -7 -7 -4
-20 -3 -30 3 -11 6 -24 6 -33 0 -7 -5 -26 -9 -41 -9 -34 0 -37 -16 -5 -23 44
-10 977 -7 977 3 0 6 -21 11 -47 12 -104 5 -152 6 -238 8 -76 1 -93 5 -112 22
-30 28 -31 86 -3 116 25 27 81 29 105 5 16 -15 16 -18 1 -28 -9 -7 -12 -16 -8
-21 4 -5 -5 2 -20 15 -23 20 -30 22 -43 11 -20 -17 -16 -69 7 -84 28 -17 33 2
10 33 -21 28 -21 30 -3 28 11 -1 19 -4 19 -7 -2 -22 6 -32 32 -42 25 -8 28
-13 19 -24 -9 -11 -7 -14 10 -14 20 0 21 5 21 100 0 93 1 100 20 100 16 0 20
-7 20 -37 0 -29 3 -34 12 -25 15 15 61 15 76 0 7 -7 12 -39 12 -75 l0 -63 55
0 c67 0 74 19 8 22 l-48 1 50 7 c45 6 46 7 13 8 -20 1 -40 7 -43 12 -3 6 -1
10 5 10 8 0 9 10 5 30 -4 19 -3 30 4 30 6 0 11 -4 11 -9 0 -11 39 -21 45 -12
2 5 -16 23 -40 40 -26 18 -45 27 -45 20 0 -7 -9 -3 -20 9 -19 20 -33 26 -52
23 -5 0 -8 6 -8 14 0 8 -10 16 -22 17 -13 1 27 5 87 8 95 5 79 7 -120 10
l-230 4 220 6 220 6 -314 2 c-275 2 -312 0 -307 -13 3 -8 1 -15 -3 -15 -5 0
-11 7 -15 15 -8 21 -46 19 -46 -2 0 -15 -2 -16 -10 -3 -8 12 -11 13 -19 1 -7
-11 -9 -11 -14 0 -4 10 -8 11 -14 3 -4 -7 -19 -14 -33 -16 -14 -2 -24 -8 -23
-14 1 -5 -7 -10 -18 -10 -21 0 -25 12 -6 19 6 3 2 6 -10 6 -13 1 -23 -6 -26
-16 -4 -17 -5 -17 -6 0 -1 20 -17 23 -24 5 -4 -10 -6 -10 -6 0 -1 8 -9 10 -26
6 -21 -5 -25 -3 -25 15 0 21 -5 24 -27 14z m557 -38 c0 -18 17 -20 22 -3 6 17
38 19 38 2 0 -9 5 -12 10 -9 6 4 8 11 5 16 -4 5 18 8 52 7 50 -1 52 -2 16 -5
-24 -2 -43 -8 -43 -13 0 -6 10 -9 21 -7 12 1 24 -3 26 -9 2 -7 -25 -11 -81
-12 -74 -1 -84 1 -89 18 -3 10 -2 21 1 24 10 11 22 6 22 -9z m-72 -7 c9 -9 12
-9 12 0 0 7 5 12 11 12 5 0 7 -4 4 -10 -3 -5 0 -10 7 -10 10 0 9 -3 -2 -10
-12 -8 -11 -15 8 -48 12 -22 22 -49 22 -61 0 -19 -6 -21 -50 -21 -27 0 -50 -4
-50 -9 0 -16 29 -33 48 -27 11 4 27 3 37 0 17 -7 17 -8 -1 -21 -27 -20 -81
-16 -104 7 -28 28 -27 89 2 119 18 20 19 27 9 43 -7 11 -9 23 -5 26 4 4 9 2
11 -4 9 -25 30 -47 42 -43 9 3 6 12 -8 31 -12 14 -21 29 -21 32 0 10 15 7 28
-6z m-88 -28 c0 -16 -7 -20 -30 -20 l-30 0 0 -85 c0 -78 -2 -85 -20 -85 -18 0
-20 7 -20 85 l0 85 -35 0 c-28 0 -35 4 -35 20 0 18 7 20 85 20 78 0 85 -2 85
-20z m-180 -20 c12 -16 18 -34 15 -40 -3 -5 3 -10 14 -10 10 0 22 6 24 13 4 7
6 6 6 -5 1 -19 -20 -25 -63 -19 -19 2 -24 6 -15 12 10 6 10 10 0 23 -7 9 -11
22 -8 30 5 12 -5 16 -46 19 l-52 3 52 2 c47 2 54 -1 73 -28z m-51 -3 c6 -8 9
-16 6 -18 -2 -3 -1 -28 4 -57 7 -43 6 -50 -5 -41 -8 6 -14 22 -14 35 0 13 -4
24 -8 24 -5 0 -7 13 -4 29 4 26 1 30 -24 34 l-29 4 31 2 c17 0 37 -5 43 -12z
m77 -122 c-7 -18 -26 -20 -26 -2 0 18 24 41 28 27 2 -6 1 -17 -2 -25z"/>
<path d="M1437 284 c-15 -15 -6 -24 24 -24 20 0 29 4 27 13 -5 14 -40 21 -51
11z"/>
<path d="M1900 354 c0 -7 54 -53 63 -54 12 0 8 27 -7 39 -15 12 -56 23 -56 15z"/>
<path d="M756 335 c-6 -17 23 -21 40 -6 5 5 18 11 29 14 11 3 1 5 -21 6 -29 1
-44 -4 -48 -14z"/>
<path d="M992 323 c4 -21 33 -25 33 -3 0 8 -8 16 -18 18 -14 3 -18 -1 -15 -15z"/>
<path d="M288 265 c-8 -19 -8 -31 0 -50 26 -56 85 -10 63 48 -14 35 -47 36
-63 2z"/>
<path d="M1772 278 c-6 -6 -12 -34 -12 -60 0 -47 1 -48 30 -48 l31 0 -3 57
c-3 60 -19 78 -46 51z"/>
<path d="M974 235 c-9 -23 3 -45 25 -45 28 0 33 13 15 38 -18 26 -32 28 -40 7z"/>
<path d="M931 140 c-10 -23 -10 -34 -2 -44 7 -8 16 -33 20 -57 l9 -44 1 45 c1
55 14 70 60 71 l36 1 -35 7 c-45 9 -60 18 -60 37 0 24 -14 16 -29 -16z"/>
<path d="M42 113 c27 -2 69 -2 95 0 27 2 5 3 -47 3 -52 0 -74 -1 -48 -3z"/>
<path d="M227 113 c24 -2 62 -2 85 0 24 2 5 4 -42 4 -47 0 -66 -2 -43 -4z"/>
<path d="M1623 113 c64 -2 170 -2 235 0 64 1 11 3 -118 3 -129 0 -182 -2 -117
-3z"/>
<path d="M230 93 c136 -2 239 -8 244 -13 7 -7 -74 -10 -232 -10 -133 0 -242
-4 -242 -8 0 -12 651 -13 690 -2 17 5 32 5 35 0 3 -5 22 -8 43 -6 30 2 36 6
34 22 -3 18 -3 18 12 -1 8 -11 16 -14 16 -7 0 6 6 12 14 12 8 0 18 5 21 10 4
7 -142 9 -432 8 -246 -2 -335 -4 -203 -5z"/>
<path d="M887 75 c5 -25 -11 -36 -20 -12 -8 17 -27 -12 -20 -30 3 -7 0 -13 -6
-13 -6 0 -11 5 -11 10 0 18 -18 11 -23 -9 -4 -17 0 -19 27 -18 17 2 37 6 44
10 7 5 12 4 12 -2 0 -6 7 -11 16 -11 22 0 16 94 -7 98 -13 2 -15 -3 -12 -23z"/>
<path d="M986 93 c-3 -3 -5 -27 -4 -52 l1 -46 7 45 7 45 3 -45 3 -45 6 44 c3
25 12 46 20 49 11 4 12 0 6 -14 -4 -11 -10 -31 -13 -47 -4 -26 -3 -27 38 -27
40 0 42 1 36 25 -5 19 -2 25 11 26 10 0 51 4 91 8 40 4 76 3 78 -1 7 -10 694
-7 694 4 0 4 -118 8 -262 8 -172 0 -259 3 -252 10 6 6 115 11 264 13 140 1 34
3 -236 4 -270 1 -494 -1 -498 -4z m95 -37 c-5 -6 -10 -14 -10 -18 -2 -15 -15
-9 -22 9 -7 20 7 34 28 26 9 -4 10 -9 4 -17z"/>
<path d="M30 33 c19 -2 40 -9 45 -16 7 -9 69 -12 217 -12 113 0 201 3 195 7
-19 12 14 19 71 15 29 -2 55 0 58 5 3 4 -136 7 -308 6 -172 0 -297 -3 -278 -5z"/>
<path d="M728 31 c8 -4 13 -12 12 -17 0 -5 9 -11 22 -12 18 -3 20 -1 10 10 -6
8 -9 18 -5 21 3 4 -7 7 -23 7 -20 0 -25 -3 -16 -9z"/>
<path d="M1127 20 c-4 -15 0 -20 14 -20 10 0 19 7 19 14 0 11 15 16 53 19 50
3 49 3 -14 5 -59 2 -67 0 -72 -18z"/>
<path d="M1273 34 c3 -4 30 -7 59 -8 35 -1 52 -6 51 -14 -2 -7 6 -12 18 -12
11 0 18 3 16 8 -3 4 96 5 220 2 168 -4 227 -2 235 7 5 7 31 14 56 15 26 2
-112 5 -307 6 -195 1 -352 -1 -348 -4z"/>
</g>
</svg>
