<?xml version="1.0" standalone="no"?>
<!DOCTYPE svg PUBLIC "-//W3C//DTD SVG 20010904//EN"
 "http://www.w3.org/TR/2001/REC-SVG-20010904/DTD/svg10.dtd">
<svg version="1.0" xmlns="http://www.w3.org/2000/svg"
 width="197.000000pt" height="50.000000pt" viewBox="0 0 197.000000 50.000000"
 preserveAspectRatio="xMidYMid meet">
<metadata>
Created by potrace 1.10, written by Peter Selinger 2001-2011
</metadata>
<g transform="translate(0.000000,50.000000) scale(0.100000,-0.100000)"
fill="#000000" stroke="none">
<path d="M117 476 c-44 -27 -60 -42 -32 -31 11 4 43 8 70 7 35 -1 44 1 30 7
-11 5 -27 6 -35 4 -8 -3 -4 5 9 16 31 28 6 26 -42 -3z"/>
<path d="M570 486 c0 -8 -12 -19 -27 -24 -21 -8 7 -11 116 -11 79 -1 141 2
138 6 -4 3 -24 6 -44 6 -33 -1 -35 0 -13 7 22 7 21 8 -13 9 -23 1 -36 -3 -32
-9 3 -5 1 -10 -4 -10 -6 0 -11 5 -11 10 0 6 -5 10 -11 10 -5 0 -7 -4 -4 -10 3
-5 1 -10 -4 -10 -6 0 -11 10 -12 23 0 12 -3 16 -6 10 -2 -7 -11 -13 -19 -13
-9 0 -12 5 -8 13 4 6 -3 3 -16 -8 -20 -17 -23 -18 -17 -2 4 9 2 17 -3 17 -6 0
-10 -6 -10 -14z"/>
<path d="M950 470 c4 -65 0 -100 -10 -100 -6 0 -9 12 -8 27 4 33 -24 40 -32 8
-3 -11 -14 -21 -24 -23 -11 -3 -16 0 -12 7 4 6 2 11 -3 11 -6 0 -11 -12 -12
-27 l-1 -28 -10 28 c-10 29 -23 35 -31 15 -4 -10 -6 -10 -6 0 -1 6 -8 12 -16
12 -8 0 -15 -6 -15 -12 0 -10 -2 -10 -9 0 -5 9 -24 13 -52 11 -38 -3 -45 -7
-50 -29 -6 -21 -7 -19 -8 12 -1 29 2 36 14 32 8 -4 15 -1 15 5 0 7 -28 11 -82
10 -56 0 -76 -3 -63 -9 17 -7 17 -9 3 -9 -14 -1 -18 -10 -19 -38 -1 -24 -3
-29 -6 -15 -2 12 -11 22 -19 22 -8 0 -14 4 -14 10 0 5 7 7 15 4 8 -4 15 -1 15
5 0 6 -16 11 -35 11 -26 0 -35 -4 -35 -16 0 -14 3 -14 15 -4 12 10 15 10 15
-4 0 -9 7 -16 16 -16 8 0 12 -5 9 -11 -4 -6 -9 -8 -12 -5 -3 2 -15 1 -27 -3
-12 -5 -38 -3 -61 4 -22 7 -34 13 -27 14 6 1 12 6 12 11 0 6 -30 11 -67 12
l-68 2 80 6 c56 4 24 6 -105 6 -153 0 -167 -1 -80 -6 58 -3 97 -7 88 -8 -10
-1 -18 -8 -18 -14 0 -9 -4 -8 -10 2 -8 13 -10 12 -10 -3 0 -15 -24 -62 -40
-77 -9 -9 -9 -70 0 -70 6 0 10 -4 10 -10 0 -6 -35 -11 -82 -12 l-83 -2 95 -6
95 -6 -92 -2 c-135 -3 -119 -22 17 -22 l111 0 -16 30 c-19 37 -19 73 0 110 30
58 107 69 153 23 l26 -26 -22 -10 c-17 -8 -27 -6 -42 8 -26 23 -68 13 -76 -19
-11 -47 -1 -80 30 -91 24 -8 31 -6 47 13 12 15 25 21 36 18 14 -4 25 5 43 34
26 43 54 56 93 46 20 -5 26 1 40 30 10 19 13 33 7 29 -5 -3 -10 3 -10 14 0 12
5 21 10 21 6 0 10 -4 10 -9 0 -4 10 -6 23 -4 12 2 28 -1 36 -6 11 -7 10 -14
-8 -39 -19 -28 -20 -31 -4 -34 9 -2 34 -1 55 0 28 3 38 9 38 22 0 15 18 30 36
30 2 0 4 -12 5 -27 0 -27 1 -27 9 -5 13 31 18 28 18 -13 0 -23 -5 -35 -14 -35
-10 0 -14 -14 -14 -50 0 -38 4 -50 15 -50 8 0 15 -7 15 -16 0 -11 -8 -14 -32
-12 -33 3 -33 3 -36 66 -3 63 -6 67 -47 62 -28 -3 -35 -17 -35 -77 0 -46 -3
-53 -19 -53 -17 0 -20 9 -23 81 -2 50 2 89 9 102 30 53 5 49 -31 -5 -19 -28
-24 -44 -16 -52 5 -5 10 -20 10 -33 0 -21 -4 -23 -50 -23 -27 0 -50 -4 -50 -9
0 -16 29 -33 48 -27 11 4 27 3 37 0 17 -7 17 -8 -1 -21 -23 -16 -75 -17 -97 0
-10 6 -21 25 -25 41 l-8 30 -23 -37 c-25 -41 -54 -53 -104 -43 -17 4 -36 6
-42 6 -5 -1 -58 -4 -117 -6 -60 -3 -108 -10 -108 -15 0 -11 892 -10 911 1 17
11 26 140 10 140 -7 0 -11 -24 -11 -65 0 -61 -1 -65 -22 -65 -22 0 -23 3 -20
65 3 54 1 65 -12 65 -9 0 -16 7 -16 15 0 8 6 15 14 15 8 0 16 10 18 23 2 18
10 23 41 25 28 2 37 0 37 -12 0 -9 -9 -16 -20 -16 -11 0 -20 -4 -20 -10 0 -5
7 -10 15 -10 12 0 15 -16 15 -83 0 -50 -5 -88 -12 -95 -9 -9 -9 -17 2 -36 7
-14 16 -42 20 -63 l8 -38 1 45 c1 55 14 70 60 71 l36 1 -35 7 c-62 12 -61 7
-59 198 0 96 -3 178 -6 181 -4 4 -6 -9 -5 -28z m-126 -122 c-4 -7 -6 -54 -5
-105 2 -88 1 -93 -18 -93 -17 0 -21 7 -22 38 -1 20 -1 41 0 45 1 4 2 35 3 67
1 56 3 60 25 60 16 0 22 -4 17 -12z m-430 -63 c-20 -19 -39 -33 -42 -31 -9 9
43 65 61 65 14 1 9 -8 -19 -34z"/>
<path d="M1256 489 c5 -9 -7 -10 -44 -7 -28 3 -57 1 -64 -3 -9 -6 -3 -9 17
-10 l30 -1 -30 -8 c-24 -6 -18 -8 32 -9 41 -1 63 3 66 12 4 10 6 10 6 0 1 -9
21 -13 66 -13 61 0 65 1 65 23 0 18 -2 19 -10 7 -8 -13 -10 -12 -10 3 0 9 -4
17 -10 17 -5 0 -6 -8 -3 -17 6 -15 4 -16 -9 -5 -8 7 -22 10 -31 6 -8 -3 -18 0
-22 6 -6 9 -10 9 -16 -1 -6 -10 -9 -11 -9 -1 0 6 -7 12 -16 12 -9 0 -12 -5 -8
-11z"/>
<path d="M1828 480 l23 -19 -38 -4 c-37 -4 -37 -4 7 -5 25 -1 67 -3 93 -6 38
-3 50 -1 54 11 8 20 -23 43 -56 43 l-26 -1 28 -15 c16 -9 27 -18 24 -21 -3 -2
-15 1 -27 7 -15 8 -20 8 -16 1 11 -18 -9 -13 -37 9 -33 26 -60 26 -29 0z"/>
<path d="M1410 473 c0 -23 2 -23 113 -21 85 2 95 3 40 5 -40 2 -73 8 -73 14 0
6 -7 6 -20 -1 -15 -8 -20 -8 -20 2 0 10 -2 10 -9 -1 -7 -11 -11 -10 -20 5 -10
18 -10 18 -11 -3z"/>
<path d="M178 423 c61 -2 163 -2 225 0 61 1 11 3 -113 3 -124 0 -174 -2 -112
-3z"/>
<path d="M990 408 c0 -19 -2 -20 -10 -8 -8 12 -10 9 -10 -12 0 -21 5 -28 20
-28 16 0 20 7 20 35 0 19 -4 35 -10 35 -5 0 -10 -10 -10 -22z"/>
<path d="M1270 416 c0 -7 -9 -16 -20 -19 -13 -3 -20 0 -20 9 0 8 -5 14 -11 14
-5 0 -8 -4 -4 -9 3 -5 -9 -11 -27 -13 -18 -2 -32 -8 -31 -13 1 -6 -7 -11 -18
-11 -21 0 -25 12 -6 19 6 3 2 6 -10 6 -13 1 -23 -6 -26 -16 -4 -17 -5 -17 -6
0 -1 24 -21 22 -21 -3 0 -18 7 -20 80 -20 72 0 80 -2 90 -22 10 -21 10 -21 -3
-5 -17 21 -28 22 -21 2 4 -8 1 -15 -7 -15 -7 0 -9 -3 -5 -7 4 -4 26 -6 50 -4
26 1 47 -3 53 -11 6 -7 13 -43 15 -80 3 -60 2 -68 -14 -68 -10 0 -18 4 -18 9
0 5 -14 4 -30 -2 -40 -15 -65 0 -65 39 0 25 5 31 43 42 23 8 42 18 42 23 0 16
-29 22 -45 9 -10 -8 -19 -9 -32 -1 -10 6 -15 11 -10 11 4 0 1 13 -7 29 -9 16
-12 31 -9 35 4 3 -20 5 -53 4 -41 -1 -48 -3 -22 -5 20 -2 42 -11 48 -19 7 -8
9 -14 5 -14 -4 0 -3 -6 3 -12 6 -8 7 -30 3 -53 l-7 -40 -11 33 c-14 37 -37 50
-58 32 -20 -16 -19 -64 0 -80 13 -11 20 -11 41 0 19 11 27 11 37 1 9 -10 8
-15 -7 -27 -30 -22 -79 -18 -104 9 -47 49 -14 137 51 137 15 0 27 5 27 10 0 6
-24 10 -54 10 -44 0 -55 -4 -59 -17 -4 -14 -5 -13 -6 4 0 12 5 24 12 26 7 3 5
6 -5 6 -10 1 -18 -3 -18 -9 0 -5 -7 -10 -15 -10 -8 0 -15 -4 -15 -10 0 -5 7
-10 15 -10 12 0 15 -16 15 -80 0 -69 -2 -80 -17 -81 -15 0 -15 -2 2 -9 29 -12
985 -12 985 0 0 6 -41 10 -102 10 -57 0 -110 5 -118 10 -10 7 23 10 103 10
151 0 159 19 10 22 l-108 2 110 6 110 6 -97 2 c-91 2 -136 15 -86 25 l23 4
-22 2 c-25 1 -31 16 -10 24 6 3 4 6 -7 6 -18 1 -17 3 4 21 13 11 17 20 10 20
-7 0 -10 7 -6 16 3 8 2 12 -4 9 -8 -5 -50 28 -50 39 0 3 8 7 18 9 10 3 6 5
-10 6 -37 1 -35 -6 9 -51 20 -21 32 -38 27 -38 -6 0 -20 11 -33 23 -20 22 -30
24 -117 25 -53 0 -97 2 -99 4 -10 10 -8 42 3 45 6 3 12 -2 12 -11 0 -18 16
-22 22 -4 5 14 38 20 38 7 0 -5 5 -9 11 -9 5 0 7 4 4 10 -4 6 61 11 177 13
l183 2 -230 5 -230 4 220 6 220 6 -313 2 c-247 2 -313 -1 -309 -10 2 -7 14
-13 26 -12 29 1 27 -24 -4 -32 -14 -3 -25 -12 -25 -20 0 -10 -9 -12 -32 -7
-35 6 -51 21 -41 36 3 5 9 3 14 -4 6 -10 9 -11 9 -1 0 6 3 11 8 11 4 -1 15 -1
25 0 15 1 16 5 7 21 -12 23 -50 27 -50 6z m198 -38 c9 -9 12 -9 12 0 0 7 5 12
11 12 5 0 7 -4 4 -10 -3 -5 -1 -10 6 -10 8 0 8 -4 -1 -15 -15 -19 3 -45 31
-45 25 0 59 -39 59 -67 0 -21 -4 -23 -50 -23 -27 0 -50 -4 -50 -9 0 -16 29
-33 48 -27 11 4 27 3 37 0 17 -7 17 -8 -1 -21 -27 -20 -81 -16 -104 7 -27 27
-27 89 1 119 l21 22 -26 34 c-14 18 -26 36 -26 39 0 10 15 7 28 -6z m-25 -37
c25 -42 20 -51 -8 -16 -24 28 -25 29 -25 8 0 -14 6 -23 15 -23 8 0 15 -7 15
-15 0 -8 -7 -15 -15 -15 -11 0 -15 -12 -15 -50 0 -38 4 -50 15 -50 8 0 15 -7
15 -16 0 -11 -8 -14 -32 -12 -33 3 -33 3 -36 66 -2 46 -7 62 -17 62 -8 0 -15
7 -15 15 0 8 7 15 16 15 10 0 14 6 10 15 -3 9 5 20 22 29 36 20 35 20 55 -13z
m281 -44 c11 -8 16 -19 12 -25 -9 -15 -36 -16 -36 -2 0 6 -12 10 -26 10 -22 0
-25 -2 -14 -15 7 -8 20 -15 29 -15 24 0 61 -29 61 -47 0 -47 -82 -71 -126 -38
-19 15 -19 15 1 30 19 15 19 15 -2 36 -17 17 -19 26 -10 48 8 23 16 28 51 30
23 1 50 -5 60 -12z"/>
<path d="M1497 274 c-15 -15 -6 -24 24 -24 20 0 29 4 27 13 -5 14 -40 21 -51
11z"/>
<path d="M1660 200 c11 -21 35 -27 45 -10 3 6 -6 15 -20 20 -36 14 -37 13 -25
-10z"/>
<path d="M7 383 c-18 -17 -5 -32 26 -30 27 2 33 6 29 19 -4 18 -42 25 -55 11z"/>
<path d="M1900 362 c0 -13 49 -61 63 -62 12 0 8 27 -6 38 -6 6 -19 12 -27 14
-8 2 -18 8 -22 13 -5 6 -8 5 -8 -3z"/>
<path d="M85 349 c-4 -6 -12 -9 -19 -7 -6 2 -24 -9 -40 -24 l-29 -28 25 0 c27
0 102 53 91 64 -9 9 -21 7 -28 -5z"/>
<path d="M99 310 c-24 -16 -53 -30 -64 -31 -20 0 -20 0 0 -8 11 -5 29 -4 40 2
11 6 20 9 20 7 0 -2 9 1 20 7 11 6 17 15 13 19 -4 4 0 13 10 20 33 25 5 14
-39 -16z"/>
<path d="M1890 318 c0 -17 61 -59 73 -51 9 6 -18 32 -55 54 -13 7 -18 6 -18
-3z"/>
<path d="M447 274 c-15 -15 -6 -24 24 -24 20 0 29 4 27 13 -5 14 -40 21 -51
11z"/>
<path d="M1253 219 c-27 -10 -30 -27 -7 -36 19 -7 37 9 32 30 -2 11 -9 12 -25
6z"/>
<path d="M43 113 c26 -2 67 -2 90 0 23 2 2 3 -48 3 -50 0 -68 -1 -42 -3z"/>
<path d="M227 113 c24 -2 62 -2 85 0 24 2 5 4 -42 4 -47 0 -66 -2 -43 -4z"/>
<path d="M1618 113 c68 -2 176 -2 240 0 64 1 9 3 -123 3 -132 0 -185 -2 -117
-3z"/>
<path d="M230 93 c136 -2 239 -8 244 -13 7 -7 -74 -10 -232 -10 -142 0 -242
-4 -242 -9 0 -6 159 -9 400 -8 393 1 400 1 400 21 0 20 0 20 15 0 8 -11 15
-14 15 -6 0 6 6 12 14 12 8 0 18 5 21 10 4 7 -142 9 -432 8 -246 -2 -335 -4
-203 -5z"/>
<path d="M887 66 c3 -23 2 -36 -5 -36 -6 0 -9 9 -7 20 2 13 -2 20 -11 20 -14
0 -18 -11 -15 -37 1 -7 -3 -13 -9 -13 -5 0 -10 5 -10 10 0 18 -18 11 -23 -9
-4 -17 0 -19 27 -18 17 2 37 6 44 10 7 5 12 4 12 -2 0 -6 7 -11 16 -11 23 0
16 94 -8 98 -14 3 -16 -3 -11 -32z"/>
<path d="M986 93 c-3 -3 -5 -27 -4 -52 l1 -46 7 50 7 50 3 -50 3 -50 6 44 c3
25 12 46 20 49 11 4 12 0 6 -14 -4 -11 -10 -31 -13 -47 -4 -26 -3 -27 38 -27
39 0 42 2 36 24 -5 22 -3 24 49 31 32 4 55 11 55 18 0 7 4 6 10 -3 10 -17 50
-23 50 -7 0 6 5 5 13 -2 16 -13 697 -12 697 1 0 4 -117 8 -261 8 -159 0 -258
4 -254 9 3 6 112 10 257 11 139 0 254 3 257 5 2 3 -216 5 -486 5 -270 0 -493
-4 -497 -7z m93 -22 c9 -6 10 -11 2 -15 -6 -4 -9 -11 -6 -16 3 -5 -3 -13 -13
-19 -16 -8 -17 -6 -14 25 4 36 8 39 31 25z"/>
<path d="M30 33 c19 -2 40 -9 45 -16 7 -9 69 -12 217 -12 113 0 202 3 196 6
-20 13 11 19 66 15 31 -3 58 -1 61 5 4 5 -114 8 -307 7 -172 0 -297 -3 -278
-5z"/>
<path d="M734 23 c2 -10 13 -20 26 -21 20 -3 22 -1 12 10 -6 8 -9 18 -5 21 3
4 -3 7 -14 7 -15 0 -20 -6 -19 -17z"/>
<path d="M1127 20 c-4 -15 0 -20 14 -20 10 0 19 7 19 14 0 11 15 16 53 19 50
3 49 3 -14 5 -59 2 -67 0 -72 -18z"/>
<path d="M1271 36 c2 -3 29 -7 59 -9 30 -3 54 -9 53 -14 -2 -11 477 -5 491 6
6 5 32 11 56 14 25 2 -114 4 -309 5 -195 1 -352 0 -350 -2z"/>
</g>
</svg>
