<?xml version="1.0" standalone="no"?>
<!DOCTYPE svg PUBLIC "-//W3C//DTD SVG 20010904//EN"
 "http://www.w3.org/TR/2001/REC-SVG-20010904/DTD/svg10.dtd">
<svg version="1.0" xmlns="http://www.w3.org/2000/svg"
 width="197.000000pt" height="50.000000pt" viewBox="0 0 197.000000 50.000000"
 preserveAspectRatio="xMidYMid meet">
<metadata>
Created by potrace 1.10, written by Peter Selinger 2001-2011
</metadata>
<g transform="translate(0.000000,50.000000) scale(0.100000,-0.100000)"
fill="#000000" stroke="none">
<path d="M117 476 c-44 -27 -60 -42 -32 -31 11 4 43 8 70 7 35 -1 44 1 30 7
-11 5 -27 6 -35 3 -11 -4 -10 1 4 16 25 28 11 27 -37 -2z"/>
<path d="M570 486 c0 -8 -12 -19 -27 -24 -21 -8 7 -11 116 -11 79 -1 141 2
138 6 -4 3 -24 6 -44 6 -33 -1 -35 0 -13 7 22 7 21 8 -13 9 -23 1 -36 -3 -32
-9 3 -5 1 -10 -4 -10 -6 0 -11 5 -11 10 0 6 -5 10 -11 10 -5 0 -7 -4 -4 -10 3
-5 1 -10 -4 -10 -6 0 -11 10 -12 23 0 12 -3 16 -6 10 -2 -7 -11 -13 -19 -13
-9 0 -12 5 -8 13 4 6 -3 3 -16 -8 -20 -17 -23 -18 -17 -2 4 9 2 17 -3 17 -6 0
-10 -6 -10 -14z"/>
<path d="M925 477 c-4 -13 -5 -30 -3 -38 2 -8 -3 -13 -9 -11 -7 1 -13 -2 -13
-8 0 -6 5 -10 10 -10 6 0 10 -8 10 -17 0 -15 -2 -16 -10 -3 -8 12 -10 11 -10
-7 0 -12 6 -24 13 -26 6 -3 3 -6 -8 -7 -20 -1 -20 -1 0 -10 17 -7 17 -9 3 -9
-10 -1 -18 -6 -18 -11 0 -6 -6 -5 -14 2 -10 9 -11 15 -2 20 6 4 -1 8 -16 8
-18 0 -26 4 -23 13 3 6 0 19 -5 27 -9 13 -11 13 -20 0 -6 -10 -10 -11 -10 -2
0 6 -6 12 -14 12 -8 0 -17 -6 -19 -12 -4 -10 -6 -10 -6 0 -1 7 -16 12 -41 12
-25 0 -40 -5 -40 -12 0 -9 -3 -9 -9 1 -7 11 -10 7 -14 -15 -4 -26 -4 -25 -6 8
-1 29 2 36 14 32 8 -4 15 -1 15 5 0 7 -28 11 -82 10 -56 0 -76 -3 -63 -9 17
-7 17 -9 3 -9 -14 -1 -18 -10 -19 -38 -1 -24 -3 -29 -6 -15 -4 19 -25 34 -22
15 4 -25 -8 -28 -96 -26 -88 1 -120 -6 -95 -22 5 -3 10 -13 10 -21 0 -16 -36
-19 -45 -4 -3 6 -19 10 -36 10 -46 0 -36 -26 16 -39 110 -28 84 -150 -27 -127
-42 9 -68 10 -150 8 -111 -3 -80 -22 40 -24 l107 -2 -110 -6 c-86 -5 -64 -6
100 -6 144 0 182 2 120 6 l-90 6 130 3 c72 1 155 4 185 6 73 6 63 6 163 -1 83
-6 87 -6 87 14 0 15 -8 22 -27 25 -23 3 -22 4 8 6 29 1 38 6 42 23 4 12 5 23
4 23 -1 1 -23 0 -49 -3 l-48 -4 0 -39 c0 -32 -3 -39 -20 -39 -19 0 -20 7 -20
105 l0 105 58 0 c78 0 106 -19 98 -69 -3 -20 -7 -61 -8 -91 0 -30 -3 -47 -5
-37 -6 23 -19 22 -19 -3 0 -17 7 -20 51 -21 45 -1 47 -2 20 -10 l-30 -8 32 3
c36 3 51 -16 63 -81 l8 -38 1 47 c0 26 6 50 11 53 6 4 8 10 6 13 -2 4 14 6 37
5 l42 -2 -35 8 c-56 12 -60 17 -60 87 0 36 -4 64 -10 64 -6 0 -10 -28 -10 -64
0 -36 -3 -67 -8 -69 -4 -3 -18 -3 -32 0 -25 4 -25 6 -22 85 4 79 4 80 28 75
23 -4 24 -2 25 47 1 28 3 75 5 104 4 54 -1 69 -11 29z m-375 -86 c0 -4 11 -6
23 -4 14 3 31 -2 40 -11 14 -15 16 -14 20 2 3 11 5 7 6 -9 1 -16 -5 -29 -14
-33 -8 -3 -15 0 -15 7 -1 7 -8 0 -16 -15 -20 -38 -39 -36 -19 2 18 34 18 40 5
40 -5 0 -16 -13 -25 -30 -9 -16 -20 -30 -26 -30 -5 0 -2 14 7 31 8 17 11 28 5
25 -7 -4 -11 1 -11 13 0 12 5 21 10 21 6 0 10 -4 10 -9z m90 -99 c-4 -1 -3
-23 2 -49 8 -35 7 -47 -3 -54 -7 -4 -16 -6 -20 -3 -10 6 -9 84 1 84 4 0 8 6 7
13 0 6 1 21 2 32 2 20 2 20 10 0 5 -11 5 -21 1 -23z m-245 8 c-4 -6 6 -7 24
-4 18 4 37 2 45 -5 10 -8 16 -9 21 -1 9 14 58 13 73 -2 7 -7 12 -40 12 -80 0
-61 -2 -68 -20 -68 -16 0 -19 8 -22 63 -3 54 -5 62 -23 62 -18 0 -20 -8 -23
-62 -3 -54 -6 -63 -22 -63 -16 0 -19 9 -22 63 -3 54 -5 62 -23 62 -11 0 -20
-7 -21 -15 -1 -8 -2 -36 -2 -62 -2 -44 -4 -48 -28 -48 -14 0 -23 4 -19 10 3 6
-2 10 -11 10 -17 0 -17 1 0 13 16 11 18 24 14 70 -4 54 -4 56 21 60 14 2 27 5
29 6 2 0 0 -3 -3 -9z"/>
<path d="M951 425 c-1 -44 -4 -90 -7 -102 -4 -13 -2 -23 4 -23 12 0 20 120 11
170 -4 24 -7 10 -8 -45z"/>
<path d="M1250 489 c0 -8 -15 -10 -44 -7 -24 3 -50 2 -58 -3 -9 -6 -4 -9 17
-10 l30 -1 -30 -8 c-24 -6 -18 -8 32 -9 41 -1 63 3 66 12 4 10 6 10 6 0 1 -9
21 -13 66 -13 64 0 65 0 64 28 0 24 -1 25 -9 7 -7 -17 -9 -17 -9 -2 -1 9 -5
17 -11 17 -5 0 -6 -8 -3 -17 6 -15 4 -16 -9 -5 -8 7 -22 10 -31 6 -8 -3 -18 0
-22 6 -6 9 -10 9 -16 -1 -6 -10 -9 -11 -9 -1 0 6 -7 12 -15 12 -8 0 -15 -5
-15 -11z"/>
<path d="M1828 480 l23 -19 -38 -4 c-37 -4 -37 -4 7 -5 25 -1 67 -3 93 -6 38
-3 50 -1 54 11 8 20 -23 43 -56 43 l-26 -1 28 -15 c16 -9 27 -18 24 -21 -3 -2
-15 1 -27 7 -15 8 -20 8 -16 1 11 -18 -9 -13 -37 9 -33 26 -60 26 -29 0z"/>
<path d="M1410 473 c0 -23 2 -23 112 -23 61 0 109 2 107 4 -2 2 -43 6 -91 8
-50 2 -88 7 -88 13 0 6 -4 4 -9 -4 -7 -11 -11 -10 -20 5 -10 18 -10 18 -11 -3z"/>
<path d="M178 423 c61 -2 163 -2 225 0 61 1 11 3 -113 3 -124 0 -174 -2 -112
-3z"/>
<path d="M990 395 c0 -19 5 -35 10 -35 6 0 10 16 10 35 0 19 -4 35 -10 35 -5
0 -10 -16 -10 -35z"/>
<path d="M1270 406 c0 -18 5 -23 18 -21 9 2 23 4 30 4 21 2 -6 41 -28 41 -14
0 -20 -7 -20 -24z"/>
<path d="M1333 418 c2 -7 16 -12 31 -11 31 2 37 -26 6 -34 -17 -5 -18 -7 -5
-20 9 -8 12 -19 9 -25 -4 -6 -9 -7 -13 -1 -3 6 -24 11 -46 11 -43 2 -68 23
-58 50 5 11 2 14 -10 9 -11 -4 -17 -1 -17 8 0 8 -5 15 -11 15 -5 0 -8 -4 -4
-9 3 -5 -9 -11 -27 -13 -18 -2 -32 -8 -31 -13 1 -6 -7 -12 -18 -12 -21 -2 -26
13 -6 20 6 3 2 6 -10 6 -13 1 -23 -6 -26 -16 -4 -17 -5 -17 -6 0 -1 24 -21 22
-21 -3 0 -17 7 -20 48 -22 l47 -1 -50 -7 c-45 -6 -46 -7 -13 -8 45 -2 49 -9
53 -75 l2 -52 -12 40 c-8 22 -14 48 -14 58 -1 14 -11 17 -55 17 -34 0 -56 -5
-59 -12 -4 -10 -6 -10 -6 0 -1 6 -10 12 -21 12 -19 0 -20 -7 -20 -90 0 -107 3
-110 112 -111 50 0 67 -3 53 -9 -11 -5 -15 -10 -10 -11 6 -1 -24 -5 -65 -8
l-75 -6 -1 -50 -2 -50 8 45 7 45 3 -45 3 -45 6 44 c3 25 12 46 20 49 11 4 12
0 6 -14 -4 -11 -10 -31 -13 -47 -4 -26 -2 -27 37 -27 30 0 41 4 41 16 0 10 -7
14 -22 12 -19 -2 -24 2 -26 26 -3 20 0 27 10 24 7 -3 13 -11 12 -19 -1 -11 15
-13 80 -10 45 2 89 7 98 12 10 6 19 5 23 -1 8 -12 695 -10 695 2 0 4 -117 8
-261 8 -159 0 -258 4 -254 9 3 6 113 10 257 11 139 0 254 3 257 5 2 3 -166 5
-375 5 -248 0 -374 4 -364 10 13 9 13 10 0 12 -51 6 182 12 315 8 l160 -5
-105 -5 c-68 -4 -20 -6 135 -6 180 0 210 2 120 6 l-120 6 118 2 c64 1 117 6
117 11 0 11 -182 20 -194 9 -26 -22 -116 -2 -116 26 0 8 -7 19 -15 26 -8 7
-15 18 -15 24 1 6 9 1 19 -11 11 -13 25 -23 33 -23 8 0 19 -5 25 -11 13 -13
44 -9 44 6 0 5 -17 14 -38 20 -25 7 -42 20 -51 38 -21 44 -39 34 -41 -23 0
-38 3 -50 14 -50 8 0 15 -7 15 -16 0 -11 -8 -14 -32 -12 -33 3 -33 3 -36 66
-2 46 -7 62 -17 62 -8 0 -15 6 -15 14 0 7 -9 16 -20 19 -24 6 -25 1 -4 -20 23
-24 2 -40 -30 -23 -32 17 -56 0 -56 -40 0 -38 25 -58 51 -41 11 6 30 9 42 5
l21 -7 -23 -18 c-13 -11 -38 -19 -55 -19 -70 0 -103 91 -51 140 l24 23 -19 25
c-24 29 -25 42 -6 42 8 0 16 6 19 13 3 9 7 9 20 -2 11 -9 17 -10 17 -2 0 6 5
11 11 11 5 0 7 -4 4 -10 -3 -5 -1 -10 6 -10 10 0 10 -3 1 -12 -19 -19 -14 -28
23 -44 45 -19 55 -18 55 5 0 16 18 31 36 31 2 0 4 -12 4 -26 0 -21 4 -25 19
-21 14 3 17 0 14 -14 -6 -23 3 -24 25 -3 11 12 28 15 61 11 l46 -5 -34 28
c-31 26 -56 31 -81 15 -6 -3 -10 -2 -10 4 0 5 -9 12 -19 16 -10 3 -21 14 -24
25 -5 19 2 20 176 23 l182 2 -230 5 -230 4 220 6 220 6 -313 2 c-247 2 -313
-1 -309 -10z m207 -33 c0 -10 10 -15 28 -16 24 0 25 -1 7 -9 -38 -16 -55 -12
-55 15 0 14 5 25 10 25 6 0 10 -7 10 -15z m-324 -47 c4 -6 2 -14 -4 -16 -7 -2
-9 -8 -6 -14 11 -17 4 -201 -8 -215 -15 -18 -58 -17 -58 2 0 8 7 15 15 15 12
0 15 17 15 94 0 66 4 96 13 100 10 5 10 7 0 12 -7 3 -13 12 -13 20 0 17 36 19
46 2z m36 -23 c3 -17 10 -19 45 -17 48 4 83 -22 83 -63 0 -23 -3 -25 -50 -25
-27 0 -50 -4 -50 -9 0 -16 30 -33 46 -27 9 4 26 4 37 0 20 -6 20 -7 2 -20 -28
-21 -82 -17 -105 6 -22 22 -28 88 -10 106 7 7 6 20 -5 40 -17 33 -20 53 -6 39
5 -6 11 -19 13 -30z m-137 -40 c50 -49 15 -135 -55 -135 -41 0 -80 39 -80 80
0 41 39 80 80 80 19 0 40 -9 55 -25z"/>
<path d="M1287 264 c-15 -15 -6 -24 24 -24 20 0 29 4 27 13 -5 14 -40 21 -51
11z"/>
<path d="M1028 245 c-22 -49 25 -98 60 -63 7 7 12 24 12 38 0 51 -52 69 -72
25z"/>
<path d="M102 403 c37 -2 100 -2 140 0 40 1 10 3 -67 3 -77 0 -110 -1 -73 -3z"/>
<path d="M440 388 c1 -19 2 -20 10 -7 6 11 18 15 35 11 15 -2 25 0 25 7 0 6
-16 11 -35 11 -30 0 -35 -3 -35 -22z"/>
<path d="M7 383 c-18 -17 -5 -32 26 -30 27 2 33 6 29 19 -4 18 -42 25 -55 11z"/>
<path d="M130 375 c18 -21 -8 -57 -60 -83 -23 -11 -35 -22 -28 -25 7 -2 20 -1
28 3 27 12 45 5 48 -17 2 -13 8 -23 13 -23 6 0 7 -4 4 -10 -3 -5 -36 -11 -73
-12 l-67 -2 75 -6 75 -6 -72 -2 c-100 -3 -94 -22 6 -22 74 0 79 1 74 20 -4 15
0 20 15 20 11 0 25 -7 32 -15 14 -17 48 -19 70 -5 19 12 10 19 -52 44 -47 19
-53 25 -56 53 -4 43 32 68 87 60 39 -5 61 6 61 30 0 17 -37 17 -43 1 -4 -10
-6 -10 -6 0 -1 8 -18 12 -51 12 -41 0 -50 -3 -50 -17 -1 -17 -1 -17 -14 0 -7
9 -17 17 -21 17 -4 0 -2 -7 5 -15z"/>
<path d="M1719 373 c5 -10 23 -31 40 -47 17 -16 28 -34 24 -39 -4 -6 -1 -7 6
-2 10 6 11 3 2 -14 -12 -22 -36 -28 -46 -11 -8 13 -45 13 -45 0 0 -5 12 -12
28 -16 42 -10 72 -32 72 -54 0 -18 7 -20 85 -20 108 0 114 19 8 22 l-78 2 80
6 80 6 -70 2 c-38 1 -77 7 -85 12 -8 5 -10 10 -5 10 6 0 10 12 9 28 -1 15 -3
33 -3 41 -1 8 -4 11 -8 8 -3 -4 -11 3 -17 14 -6 12 -15 21 -21 21 -5 0 -18 7
-28 16 -18 16 -18 17 0 23 14 6 12 8 -10 8 -23 1 -26 -2 -18 -16z"/>
<path d="M1438 364 c-11 -10 27 -64 45 -64 16 0 15 5 -9 35 -29 38 -28 38 -36
29z"/>
<path d="M1900 362 c0 -13 49 -61 63 -62 12 0 8 27 -6 38 -6 6 -19 12 -27 14
-8 2 -18 8 -22 13 -5 6 -8 5 -8 -3z"/>
<path d="M85 349 c-4 -6 -12 -9 -19 -7 -6 2 -24 -9 -40 -24 l-29 -28 25 0 c27
0 102 53 91 64 -9 9 -21 7 -28 -5z"/>
<path d="M1890 321 c0 -15 61 -62 72 -55 7 4 1 14 -13 26 -37 29 -59 40 -59
29z"/>
<path d="M742 290 c-17 -28 -15 -32 16 -28 19 2 28 9 30 26 4 29 -28 30 -46 2z"/>
<path d="M230 93 c136 -2 239 -8 244 -13 7 -7 -74 -10 -232 -10 -135 0 -242
-4 -242 -9 0 -5 173 -9 400 -8 394 0 400 1 400 21 0 20 0 20 15 0 8 -11 15
-14 15 -6 0 6 6 12 14 12 8 0 18 5 21 10 4 7 -142 9 -432 8 -246 -2 -335 -4
-203 -5z"/>
<path d="M886 76 c6 -26 -10 -37 -19 -13 -8 17 -27 -12 -20 -30 3 -7 -2 -13
-12 -13 -9 0 -13 5 -10 10 3 6 2 10 -3 10 -5 0 -12 -9 -15 -19 -4 -17 0 -19
27 -18 17 2 37 6 44 10 7 5 12 4 12 -2 0 -6 7 -11 16 -11 24 0 16 94 -9 98
-15 3 -17 -1 -11 -22z"/>
<path d="M30 33 c19 -2 40 -9 45 -16 7 -9 69 -12 217 -12 113 0 201 3 195 7
-18 11 19 21 52 15 16 -3 41 -2 57 3 18 5 -95 8 -286 8 -173 -1 -299 -3 -280
-5z"/>
<path d="M734 23 c2 -10 13 -20 26 -21 20 -3 22 -1 12 10 -6 8 -9 18 -5 21 3
4 -3 7 -14 7 -15 0 -20 -6 -19 -17z"/>
<path d="M1127 20 c-4 -15 0 -20 14 -20 10 0 19 7 19 15 0 12 11 15 45 13 25
0 48 2 52 5 3 4 -23 7 -59 7 -57 0 -66 -3 -71 -20z"/>
<path d="M1270 33 c0 -5 26 -8 58 -8 39 -1 56 -5 55 -13 -2 -7 6 -12 18 -12
11 0 18 3 16 8 -3 4 96 5 220 2 168 -4 227 -2 235 7 5 7 31 14 56 16 26 2
-112 4 -305 5 -194 1 -353 -1 -353 -5z"/>
</g>
</svg>
