<?xml version="1.0" standalone="no"?>
<!DOCTYPE svg PUBLIC "-//W3C//DTD SVG 20010904//EN"
 "http://www.w3.org/TR/2001/REC-SVG-20010904/DTD/svg10.dtd">
<svg version="1.0" xmlns="http://www.w3.org/2000/svg"
 width="197.000000pt" height="50.000000pt" viewBox="0 0 197.000000 50.000000"
 preserveAspectRatio="xMidYMid meet">
<metadata>
Created by potrace 1.10, written by Peter Selinger 2001-2011
</metadata>
<g transform="translate(0.000000,50.000000) scale(0.100000,-0.100000)"
fill="#000000" stroke="none">
<path d="M117 476 c-44 -27 -60 -42 -32 -31 11 4 43 8 70 7 35 -1 44 1 30 7
-11 5 -27 6 -35 3 -11 -4 -10 1 4 16 25 28 11 27 -37 -2z"/>
<path d="M570 486 c0 -8 -12 -19 -27 -24 -21 -8 8 -10 117 -11 81 0 136 4 125
8 -11 5 -27 6 -35 4 -13 -4 -13 -4 0 6 12 8 7 11 -23 11 -23 0 -36 -4 -32 -10
3 -5 2 -10 -4 -10 -5 0 -12 6 -14 13 -4 10 -6 10 -6 0 -2 -23 -21 -14 -22 10
0 12 -3 16 -6 10 -2 -7 -11 -13 -19 -13 -9 0 -12 5 -8 13 4 6 -3 3 -16 -8 -20
-17 -23 -18 -17 -2 4 9 2 17 -3 17 -6 0 -10 -6 -10 -14z"/>
<path d="M950 449 c0 -97 -11 -294 -17 -309 -10 -24 -10 -34 -1 -46 5 -7 13
-31 17 -55 l9 -44 1 47 c1 26 6 50 11 53 6 4 8 10 6 13 -2 4 14 6 37 5 l42 -2
-35 8 c-19 5 -42 10 -50 12 -8 2 -14 -1 -15 -8 0 -18 -15 -28 -15 -10 0 9 5
19 10 22 6 3 9 36 8 73 -1 37 -1 116 1 175 2 60 0 111 -3 114 -3 4 -6 -18 -6
-48z"/>
<path d="M1249 488 c-1 -7 -1 -16 0 -20 0 -5 -3 -8 -9 -8 -5 0 -10 4 -10 9 0
12 -67 19 -83 9 -7 -5 -1 -8 18 -9 l30 -1 -30 -8 c-24 -6 -18 -8 32 -9 41 -1
63 3 66 12 4 10 6 10 6 0 1 -9 21 -13 66 -13 64 0 65 0 64 28 0 24 -1 25 -9 7
-7 -17 -9 -17 -9 -2 -1 9 -5 17 -11 17 -5 0 -6 -8 -3 -17 6 -15 4 -16 -9 -5
-8 7 -22 10 -31 6 -8 -3 -18 0 -22 6 -6 9 -10 9 -16 -1 -6 -10 -9 -11 -9 -1 0
6 -7 12 -15 12 -8 0 -16 -6 -16 -12z"/>
<path d="M1828 480 l23 -19 -38 -4 c-37 -4 -37 -4 7 -5 25 -1 67 -3 93 -6 38
-3 50 -1 54 11 8 20 -23 43 -56 43 l-26 -1 28 -15 c16 -9 27 -18 24 -21 -3 -2
-15 1 -27 7 -15 8 -20 8 -16 1 11 -18 -9 -13 -37 9 -33 26 -60 26 -29 0z"/>
<path d="M1410 473 c0 -23 2 -23 113 -21 85 2 95 3 40 5 -40 2 -73 8 -73 14 0
6 -7 6 -20 -1 -15 -8 -20 -8 -20 2 0 10 -2 10 -9 -1 -7 -11 -11 -10 -20 5 -10
18 -10 18 -11 -3z"/>
<path d="M178 423 c61 -2 163 -2 225 0 61 1 11 3 -113 3 -124 0 -174 -2 -112
-3z"/>
<path d="M535 420 c16 -7 17 -9 3 -9 -11 -1 -18 -12 -21 -33 l-4 -33 -1 33
c-2 30 -5 32 -37 32 -30 0 -35 -3 -35 -22 1 -20 2 -21 10 -6 7 10 17 14 32 10
21 -5 21 -6 2 -13 -18 -7 -18 -8 0 -8 35 -2 7 -14 -39 -17 -63 -5 -68 -7 -87
-28 -10 -10 -18 -16 -18 -11 0 4 -7 2 -16 -5 -8 -8 -14 -9 -13 -4 1 5 1 17 0
28 -1 16 -3 17 -18 5 -17 -13 -17 -13 0 7 25 30 21 44 -15 45 l-33 2 35 7 c21
4 -22 7 -105 7 -134 -1 -136 -1 -45 -7 52 -3 86 -8 75 -9 -11 -2 -27 -3 -35
-2 -10 1 -11 -1 -4 -6 6 -5 10 -39 10 -81 -1 -39 3 -72 7 -72 5 0 5 -4 2 -10
-3 -5 -48 -11 -98 -12 l-92 -2 105 -6 105 -6 -102 -2 c-142 -3 -135 -22 7 -22
l110 0 0 100 c0 93 1 100 20 100 18 0 20 -7 20 -85 l0 -85 49 0 c41 0 51 4 65
25 9 13 16 31 16 40 0 27 39 57 73 54 54 -3 63 0 75 27 7 14 8 23 2 19 -5 -3
-10 3 -10 14 0 12 5 21 10 21 6 0 10 -4 10 -9 0 -4 10 -6 23 -4 44 7 51 -11
23 -56 -32 -50 -54 -55 -24 -6 24 42 15 61 -12 25 -16 -21 -20 -42 -20 -123
l0 -97 28 6 c15 4 30 12 35 18 5 8 10 7 16 -3 7 -10 36 -16 95 -19 81 -4 86
-3 86 16 0 16 -7 20 -41 20 -23 1 -44 3 -47 6 -3 3 20 6 51 6 55 0 57 1 66 33
5 17 10 24 10 14 1 -10 -4 -28 -11 -40 -24 -45 -18 -57 29 -57 24 0 43 5 43
11 0 5 4 8 9 5 10 -6 21 50 21 107 0 25 -4 37 -14 37 -19 0 -26 -22 -26 -81 0
-42 -3 -49 -20 -49 -18 0 -20 7 -20 80 l0 79 35 -1 c19 -1 37 1 39 3 2 2 6 26
7 53 3 41 1 49 -13 52 -10 1 -18 -2 -18 -7 0 -5 5 -9 10 -9 6 0 10 -8 10 -17
0 -15 -2 -16 -10 -3 -8 12 -10 11 -10 -7 0 -12 6 -24 13 -26 6 -3 -13 -6 -43
-6 -32 0 -50 3 -42 7 7 5 10 16 6 25 -7 19 -24 23 -24 7 0 -6 -6 -5 -14 2 -8
7 -10 15 -5 16 5 2 9 8 9 13 0 16 -104 6 -118 -11 -10 -13 -11 -13 -6 3 6 15
-2 17 -77 16 -56 0 -77 -3 -64 -9z m267 -67 c10 -9 18 -26 18 -39 0 -26 -31
-93 -43 -94 -5 0 -5 5 -2 10 4 6 -10 10 -34 10 l-41 0 0 -40 c0 -33 -3 -40
-20 -40 -19 0 -20 7 -20 105 l0 105 62 0 c43 0 67 -5 80 -17z m-402 -39 c0
-12 -34 -64 -42 -64 -14 0 -9 13 14 37 38 40 9 25 -45 -24 -29 -27 -43 -38
-32 -25 16 20 17 25 5 32 -12 8 -11 10 6 10 11 0 29 9 39 20 17 18 55 28 55
14z m218 -89 c2 -39 -2 -42 -25 -19 -13 13 -14 19 -3 39 17 31 26 25 28 -20z"/>
<path d="M700 305 c0 -16 6 -25 15 -25 8 0 15 4 15 9 0 5 3 16 6 25 4 12 0 16
-15 16 -16 0 -21 -6 -21 -25z"/>
<path d="M748 305 c-6 -27 -1 -30 21 -16 8 5 11 16 8 25 -9 24 -24 19 -29 -9z"/>
<path d="M989 398 c0 -28 -2 -30 -9 -13 -8 19 -9 19 -9 -2 -1 -17 5 -23 19
-23 16 0 20 7 20 35 0 44 -20 47 -21 3z"/>
<path d="M1270 415 c0 -8 -9 -15 -20 -15 -11 0 -20 5 -20 10 0 6 -5 10 -11 10
-5 0 -7 -4 -4 -10 4 -6 -16 -10 -54 -10 -48 0 -60 -3 -64 -17 -4 -17 -5 -17
-6 0 -1 24 -21 22 -21 -3 0 -16 7 -20 33 -21 l32 -2 -35 -7 -35 -7 37 -2 c20
0 40 -5 43 -11 3 -5 13 -10 21 -10 8 0 14 5 14 10 0 6 -9 10 -20 10 -11 0 -20
7 -20 15 0 8 9 15 20 15 11 0 20 -5 20 -10 0 -6 10 -15 23 -20 12 -5 16 -9 9
-9 -8 -1 -10 -10 -7 -28 6 -27 6 -27 -9 -9 -15 18 -16 13 -16 -75 0 -52 -4
-99 -8 -106 -5 -8 -41 -13 -97 -15 l-90 -3 -1 -50 -2 -50 8 45 7 45 2 -45 c3
-38 4 -41 11 -20 8 24 8 24 9 3 1 -20 6 -23 42 -23 39 0 41 1 35 25 -7 27 -10
26 114 30 19 0 40 4 47 8 6 4 14 3 18 -3 7 -12 695 -10 695 2 0 4 -117 8 -261
8 -159 0 -258 4 -254 9 3 6 112 10 257 11 139 0 254 3 257 5 2 3 -175 5 -395
6 -219 0 -393 3 -386 6 6 2 10 9 6 14 -7 12 7 12 424 9 236 -1 352 2 352 8 0
10 -123 19 -257 21 -50 0 -87 17 -79 36 3 8 -4 25 -15 39 -29 37 -14 32 27 -9
34 -34 67 -45 79 -25 3 6 -2 13 -12 16 -56 17 -83 35 -83 54 0 13 -7 20 -20
20 -17 0 -20 -7 -20 -50 0 -38 4 -50 15 -50 8 0 15 -7 15 -16 0 -11 -8 -14
-32 -12 -33 3 -33 3 -36 66 -2 46 -7 62 -17 62 -8 0 -15 7 -15 15 0 8 7 15 15
15 8 0 15 9 15 19 0 10 7 22 16 25 23 9 24 8 24 -19 0 -15 6 -25 14 -25 8 0
16 -5 18 -11 3 -9 9 -9 25 0 48 25 135 0 105 -31 -10 -10 -17 -10 -32 0 -25
16 -53 16 -48 0 3 -7 19 -15 36 -19 56 -11 79 -48 50 -77 -9 -9 13 -12 100
-12 141 0 153 19 15 22 l-98 2 100 6 100 6 -87 2 c-80 2 -117 13 -86 25 10 4
10 8 -1 15 -11 8 -11 10 0 15 9 4 8 6 -5 6 -14 1 -16 4 -8 14 12 14 5 60 -8
52 -4 -2 -18 7 -31 22 -13 14 -19 23 -12 19 6 -3 14 -2 18 4 4 6 -5 10 -19 10
-14 0 -26 -3 -26 -7 0 -4 19 -28 43 -53 30 -33 33 -36 7 -13 -29 26 -44 32
-90 35 -47 3 -55 6 -55 23 0 19 8 20 180 25 l180 6 -230 4 -230 4 220 6 220 6
-313 2 c-247 2 -313 -1 -309 -10 2 -7 16 -12 31 -11 33 2 36 -24 4 -37 -13 -5
-17 -9 -10 -9 11 -1 19 -31 8 -31 -17 0 -56 21 -52 28 3 5 -8 7 -23 4 -17 -2
-32 1 -36 9 -6 9 -3 11 8 6 10 -3 17 -2 17 3 0 6 3 9 8 9 4 -1 15 -1 25 0 15
1 16 5 7 21 -12 23 -50 27 -50 5z m195 -35 c3 -5 16 -10 28 -10 17 0 19 -2 8
-9 -9 -6 -11 -15 -6 -27 23 -53 10 -75 -31 -54 -30 17 -54 -1 -54 -40 0 -38
25 -58 51 -41 11 6 30 9 42 5 l21 -7 -23 -18 c-85 -69 -183 55 -100 126 24 20
29 29 20 38 -15 15 -14 27 4 27 8 0 15 5 15 10 0 6 4 10 9 10 6 0 13 -4 16
-10z m-135 -80 c11 -11 20 -31 20 -45 0 -23 -3 -25 -50 -25 -27 0 -50 -4 -50
-9 0 -16 30 -33 46 -27 9 4 26 4 37 0 20 -6 20 -7 2 -20 -28 -21 -82 -17 -105
6 -31 31 -23 108 14 132 21 14 66 8 86 -12z m-253 -251 c-1 -11 -8 -24 -17
-29 -12 -7 -16 -3 -15 18 0 27 13 45 26 36 4 -2 7 -14 6 -25z"/>
<path d="M1437 364 c-10 -11 11 -41 33 -47 20 -5 20 -5 -1 24 -22 32 -23 32
-32 23z"/>
<path d="M1257 284 c-15 -15 -6 -24 24 -24 20 0 29 4 27 13 -5 14 -40 21 -51
11z"/>
<path d="M7 383 c-18 -17 -5 -32 26 -30 27 2 33 6 29 19 -4 18 -42 25 -55 11z"/>
<path d="M1900 362 c0 -13 49 -61 63 -62 12 0 8 27 -6 38 -6 6 -19 12 -27 14
-8 2 -18 8 -22 13 -5 6 -8 5 -8 -3z"/>
<path d="M85 349 c-4 -6 -12 -9 -19 -7 -6 2 -24 -9 -40 -24 l-29 -28 25 0 c27
0 102 53 91 64 -9 9 -21 7 -28 -5z"/>
<path d="M970 325 c0 -22 3 -24 19 -15 56 29 121 -8 121 -70 0 -62 -65 -99
-121 -70 -15 8 -19 7 -19 -4 0 -24 34 -36 104 -36 l66 0 0 78 c0 109 -5 122
-46 122 -19 0 -34 5 -34 10 0 6 -20 10 -45 10 -41 0 -45 -2 -45 -25z"/>
<path d="M99 310 c-24 -16 -53 -30 -64 -31 -20 0 -20 0 0 -8 11 -5 29 -4 40 2
11 6 20 9 20 7 0 -2 9 1 20 7 11 6 17 15 13 19 -4 4 0 13 10 20 33 25 5 14
-39 -16z"/>
<path d="M1890 318 c0 -17 61 -59 73 -51 9 6 -18 32 -55 54 -13 7 -18 6 -18
-3z"/>
<path d="M442 278 c-17 -17 -15 -63 4 -79 22 -18 48 0 52 35 6 45 -29 71 -56
44z"/>
<path d="M1006 274 c-19 -18 -20 -38 -6 -65 27 -49 86 4 62 56 -13 29 -34 32
-56 9z"/>
<path d="M374 194 l-6 -32 -184 -7 c-101 -4 -184 -11 -184 -16 0 -5 90 -9 201
-9 148 0 198 3 193 11 -5 9 1 10 22 4 57 -16 79 -12 82 15 3 20 1 23 -9 13
-26 -26 -73 -11 -97 32 -10 19 -12 18 -18 -11z"/>
<path d="M43 113 c26 -2 67 -2 90 0 23 2 2 3 -48 3 -50 0 -68 -1 -42 -3z"/>
<path d="M242 113 c32 -2 84 -2 115 0 32 2 6 3 -57 3 -63 0 -89 -1 -58 -3z"/>
<path d="M1623 113 c64 -2 170 -2 235 0 64 1 11 3 -118 3 -129 0 -182 -2 -117
-3z"/>
<path d="M227 90 c128 -3 235 -9 239 -13 4 -4 -99 -7 -229 -7 -139 0 -237 -4
-237 -9 0 -6 159 -9 400 -8 393 1 400 1 400 21 0 20 0 20 15 0 8 -11 15 -14
15 -6 0 6 6 12 14 12 8 0 18 5 21 10 4 7 -142 9 -432 8 -383 -1 -409 -2 -206
-8z"/>
<path d="M886 76 c4 -16 2 -26 -5 -26 -6 0 -11 5 -11 10 0 6 -4 10 -10 10 -5
0 -10 -11 -10 -25 0 -14 -4 -25 -10 -25 -5 0 -10 5 -10 10 0 18 -18 11 -23 -9
-4 -17 0 -19 27 -18 17 2 37 6 44 10 7 5 12 4 12 -2 0 -6 7 -11 16 -11 24 0
16 94 -9 98 -15 3 -17 -1 -11 -22z"/>
<path d="M30 33 c19 -2 40 -9 45 -16 7 -9 69 -12 217 -12 113 0 201 3 195 7
-20 12 15 19 71 14 29 -2 54 0 58 5 3 5 -122 8 -308 7 -172 0 -297 -3 -278 -5z"/>
<path d="M734 23 c2 -10 13 -20 26 -21 20 -3 22 -1 12 10 -6 8 -9 18 -5 21 3
4 -3 7 -14 7 -15 0 -20 -6 -19 -17z"/>
<path d="M1127 20 c-4 -15 0 -20 13 -20 10 0 20 6 23 14 4 9 24 16 54 19 41 3
39 4 -18 5 -59 2 -67 0 -72 -18z"/>
<path d="M1271 36 c2 -3 29 -7 59 -9 33 -3 54 -10 53 -16 -2 -6 6 -11 18 -11
11 0 18 3 16 8 -3 4 96 5 220 2 168 -4 227 -2 235 7 5 7 31 14 56 16 26 2
-112 4 -307 5 -195 1 -352 0 -350 -2z"/>
</g>
</svg>
