<?xml version="1.0" standalone="no"?>
<!DOCTYPE svg PUBLIC "-//W3C//DTD SVG 20010904//EN"
 "http://www.w3.org/TR/2001/REC-SVG-20010904/DTD/svg10.dtd">
<svg version="1.0" xmlns="http://www.w3.org/2000/svg"
 width="197.000000pt" height="50.000000pt" viewBox="0 0 197.000000 50.000000"
 preserveAspectRatio="xMidYMid meet">
<metadata>
Created by potrace 1.10, written by Peter Selinger 2001-2011
</metadata>
<g transform="translate(0.000000,50.000000) scale(0.100000,-0.100000)"
fill="#000000" stroke="none">
<path d="M112 473 c-41 -24 -54 -45 -15 -25 10 5 32 8 48 7 17 -1 22 0 12 2
-18 4 -18 6 -1 24 23 26 7 23 -44 -8z"/>
<path d="M566 486 c3 -9 -5 -18 -23 -24 -22 -8 5 -11 116 -11 79 -1 141 2 138
6 -4 3 -21 6 -39 6 -27 -1 -29 1 -13 7 16 7 12 9 -18 9 -23 1 -36 -3 -32 -9 3
-5 2 -10 -4 -10 -5 0 -12 6 -14 13 -4 10 -6 10 -6 0 -2 -23 -21 -14 -22 10 0
12 -3 16 -6 10 -2 -7 -11 -13 -19 -13 -9 0 -12 5 -8 13 4 6 -3 3 -16 -8 -20
-17 -23 -18 -17 -2 4 11 1 17 -8 17 -8 0 -12 -6 -9 -14z"/>
<path d="M950 423 c0 -44 -3 -82 -6 -85 -3 -3 -14 -4 -25 -1 -25 7 -25 33 2
33 16 0 20 5 17 27 -5 39 -34 39 -42 -1 -6 -28 -8 -29 -20 -13 -15 20 -62 23
-69 5 -4 -10 -6 -10 -6 0 -1 6 -8 12 -17 12 -8 0 -13 -4 -9 -9 3 -5 1 -12 -5
-16 -5 -3 -10 1 -10 9 0 9 -9 16 -20 16 -11 0 -20 -4 -20 -10 0 -5 -8 -10 -17
-10 -15 0 -16 2 -3 10 13 8 12 10 -2 10 -20 0 -25 -26 -6 -32 7 -3 6 -7 -5
-11 -13 -5 -17 0 -18 21 l-1 27 -8 -30 c-8 -30 -8 -30 -9 7 -1 29 2 36 14 32
8 -4 15 -1 15 5 0 7 -28 11 -82 10 -56 0 -76 -3 -63 -9 16 -7 17 -9 3 -9 -9
-1 -19 -9 -21 -18 -4 -17 -5 -17 -6 0 -1 15 -12 17 -98 16 -67 -1 -88 -4 -68
-9 22 -6 25 -8 10 -10 -11 -1 -23 -2 -28 -1 -4 0 -7 -3 -7 -9 0 -5 6 -10 13
-10 6 0 3 -6 -8 -12 -28 -15 -27 -14 -31 -48 -3 -26 -1 -30 22 -30 l25 0 -30
-37 c-16 -20 -28 -40 -25 -45 3 -5 2 -8 -3 -7 -38 7 -283 -3 -283 -11 0 -7 60
-10 172 -8 l173 3 -3 28 c-2 21 2 27 16 27 10 0 24 6 31 13 11 10 12 8 6 -11
-4 -15 -2 -24 9 -28 22 -8 68 4 64 18 -5 15 -95 47 -105 37 -4 -4 -9 12 -11
36 -2 36 1 46 20 59 42 30 128 10 128 -30 0 -16 -36 -19 -45 -4 -3 6 -19 10
-36 10 -46 0 -35 -26 17 -40 52 -15 79 -47 70 -83 -10 -40 -82 -60 -128 -36
-16 9 -22 8 -29 -2 -6 -11 -49 -15 -179 -17 -93 -2 -170 -8 -170 -13 0 -12
894 -9 911 3 11 7 11 11 2 15 -9 3 -13 30 -13 84 0 71 2 79 19 79 17 0 20 -9
23 -81 2 -58 -1 -88 -11 -101 -11 -16 -11 -24 -1 -44 7 -13 16 -40 20 -61 l8
-38 1 47 c0 26 6 50 11 53 6 4 8 10 6 13 -2 4 14 6 37 5 l42 -2 -35 8 c-62 13
-61 7 -59 198 0 96 -2 177 -5 181 -3 3 -6 -31 -6 -75z m-376 -46 c-3 -8 2 -14
11 -14 9 0 14 6 11 13 -3 8 0 11 10 7 13 -5 13 -8 -1 -29 -19 -29 -19 -34 0
-34 8 0 15 -7 15 -15 0 -8 -7 -15 -15 -15 -11 0 -15 -12 -15 -50 0 -38 4 -50
15 -50 8 0 15 -7 15 -16 0 -11 -8 -14 -32 -12 -33 3 -33 3 -36 66 -3 59 -4 62
-29 62 -25 0 -26 1 -8 20 10 11 22 17 28 13 5 -3 7 -1 3 5 -7 12 13 62 25 62
5 0 6 -6 3 -13z m276 -32 c0 -16 6 -25 15 -25 8 0 15 -7 15 -15 0 -8 -7 -15
-15 -15 -11 0 -15 -12 -15 -50 0 -38 4 -50 15 -50 8 0 15 -7 15 -16 0 -11 -8
-14 -32 -12 -33 3 -33 3 -38 68 -5 63 -6 64 -14 28 -4 -21 -12 -38 -16 -38 -5
0 -5 13 0 30 5 16 6 37 4 47 -5 18 38 73 56 73 6 0 10 -11 10 -25z m-72 8
c-10 -2 -19 -12 -19 -21 -3 -34 2 -138 7 -154 4 -13 0 -18 -15 -18 -12 0 -21
5 -21 12 0 9 -3 9 -12 0 -17 -17 -63 -15 -78 2 -23 29 -8 60 38 74 23 8 42 18
42 23 0 16 -31 23 -40 9 -5 -7 -16 -9 -29 -5 -21 6 -22 8 -5 26 11 12 30 19
54 19 24 0 40 5 44 15 7 19 -24 20 -44 3 -12 -11 -12 -10 -1 5 9 12 26 17 55
16 22 -1 33 -3 24 -6z"/>
<path d="M693 229 c-27 -10 -30 -27 -7 -36 19 -7 37 9 32 30 -2 11 -9 12 -25
6z"/>
<path d="M1260 489 c0 -8 -17 -10 -49 -7 -28 3 -56 1 -63 -3 -9 -6 -3 -9 17
-10 l30 -1 -30 -8 c-24 -6 -18 -8 32 -9 41 -1 63 3 66 12 4 10 6 10 6 0 1 -9
21 -13 66 -13 64 0 65 0 64 28 0 24 -1 25 -9 7 -7 -17 -9 -17 -9 -2 -1 9 -5
17 -11 17 -5 0 -6 -8 -3 -17 6 -15 4 -16 -9 -5 -8 7 -22 10 -31 6 -8 -3 -18 0
-22 6 -6 9 -10 9 -16 -1 -6 -10 -9 -11 -9 -1 0 6 -4 12 -10 12 -5 0 -10 -5
-10 -11z"/>
<path d="M1828 480 l23 -19 -38 -4 c-37 -4 -37 -4 7 -5 25 -1 67 -3 93 -6 38
-3 50 -1 54 11 8 20 -23 43 -56 43 l-26 -1 28 -15 c16 -9 27 -18 24 -21 -3 -2
-15 1 -27 7 -15 8 -20 8 -16 1 11 -18 -9 -13 -37 9 -33 26 -60 26 -29 0z"/>
<path d="M1410 473 c0 -23 2 -23 113 -21 85 2 95 3 40 5 -40 2 -73 8 -73 14 0
6 -7 6 -20 -1 -15 -8 -20 -8 -20 2 0 10 -2 10 -9 -1 -7 -11 -11 -10 -20 5 -10
18 -10 18 -11 -3z"/>
<path d="M178 423 c61 -2 163 -2 225 0 61 1 11 3 -113 3 -124 0 -174 -2 -112
-3z"/>
<path d="M690 418 c0 -5 25 -8 55 -8 30 0 55 4 55 8 0 5 -25 8 -55 8 -30 -1
-55 -4 -55 -8z"/>
<path d="M989 398 c0 -28 -2 -30 -9 -13 -8 19 -9 19 -9 -2 -1 -17 5 -23 19
-23 16 0 20 7 20 35 0 44 -20 47 -21 3z"/>
<path d="M1270 413 c0 -15 -2 -16 -10 -3 -9 13 -11 13 -20 0 -6 -10 -10 -11
-10 -2 0 6 -5 12 -11 12 -5 0 -7 -4 -4 -10 4 -6 -8 -10 -29 -10 -20 0 -36 -4
-36 -10 0 -5 -8 -10 -17 -10 -15 0 -16 2 -3 10 12 8 11 10 -7 10 -12 0 -23 -8
-26 -17 -4 -17 -5 -17 -6 0 -1 23 -21 22 -21 -2 0 -15 8 -21 33 -24 17 -2 -6
-5 -53 -6 -59 -1 -80 -4 -70 -11 10 -6 11 -10 3 -10 -7 0 -13 -9 -13 -21 0
-19 1 -19 16 -5 30 30 130 9 110 -22 -9 -15 -36 -16 -36 -2 0 6 -12 10 -26 10
-36 0 -25 -23 14 -31 60 -12 80 -50 44 -82 -21 -19 -73 -22 -103 -7 -15 8 -19
7 -19 -4 0 -9 8 -19 18 -24 24 -13 982 -15 982 -2 0 6 -51 10 -127 11 -71 1
-138 4 -150 7 -12 4 -38 29 -59 56 -21 27 -31 47 -22 44 8 -4 21 -3 28 2 9 6
6 12 -14 25 -34 23 -33 35 4 35 38 0 31 24 -8 27 -95 5 -102 7 -102 31 0 12 5
22 10 22 6 0 10 -7 10 -15 0 -8 7 -15 15 -15 8 0 14 5 13 11 -2 6 5 13 15 14
9 2 17 -1 17 -6 0 -5 5 -9 11 -9 5 0 7 4 4 10 -4 6 61 11 177 13 l183 2 -230
5 -230 4 220 6 220 6 -313 2 c-247 2 -313 -1 -309 -10 2 -7 16 -12 31 -11 30
2 37 -24 9 -34 -10 -3 -26 -13 -35 -21 -12 -10 -18 -11 -18 -4 0 7 6 12 13 12
8 0 7 3 -3 10 -8 5 -11 12 -8 16 4 4 3 15 -3 25 -13 24 -49 25 -49 2z m198
-35 c9 -9 12 -9 12 0 0 7 4 12 8 12 5 0 8 -15 8 -32 -1 -31 1 -33 42 -39 51
-7 72 -23 54 -41 -10 -10 -17 -10 -32 0 -24 15 -50 16 -50 2 0 -11 7 -14 53
-24 16 -4 32 -17 39 -31 16 -35 -12 -65 -62 -65 -46 0 -81 23 -63 41 10 10 18
10 37 -1 25 -13 62 -7 52 9 -3 4 -20 11 -37 15 -38 7 -59 23 -59 43 0 9 -13
31 -30 50 -33 37 -38 53 -15 53 8 0 15 5 15 10 0 14 13 13 28 -2z m-278 -22
c0 -8 7 -22 16 -31 17 -16 12 -51 -6 -40 -6 4 -10 -13 -10 -44 0 -39 4 -51 15
-51 8 0 15 -7 15 -16 0 -11 -8 -14 -32 -12 -32 3 -33 5 -42 63 -5 33 -13 63
-19 66 -5 4 -7 14 -4 22 4 11 -1 17 -16 20 -12 2 -7 4 11 3 19 -1 32 3 32 10
0 11 14 21 33 23 4 1 7 -5 7 -13z m90 -1 c0 -8 -9 -15 -20 -15 -11 0 -20 7
-20 15 0 8 9 15 20 15 11 0 20 -7 20 -15z m0 -115 c0 -73 -2 -80 -20 -80 -18
0 -20 7 -20 80 0 73 2 80 20 80 18 0 20 -7 20 -80z m154 61 c23 -25 3 -38 -30
-21 -30 17 -54 -1 -54 -40 0 -38 25 -58 51 -41 11 6 30 9 42 5 l21 -7 -23 -18
c-53 -43 -131 -8 -131 60 0 68 81 109 124 62z"/>
<path d="M1438 365 c-9 -9 25 -65 40 -65 6 0 12 3 12 8 0 13 -45 63 -52 57z"/>
<path d="M102 403 c37 -2 100 -2 140 0 40 1 10 3 -67 3 -77 0 -110 -1 -73 -3z"/>
<path d="M7 383 c-18 -17 -5 -32 26 -30 27 2 33 6 29 19 -4 18 -42 25 -55 11z"/>
<path d="M1722 368 c8 -12 21 -24 29 -26 9 -2 8 2 -3 11 -10 8 -18 17 -18 20
0 3 8 8 18 10 10 3 5 5 -12 6 -27 1 -28 0 -14 -21z"/>
<path d="M1900 362 c0 -13 49 -61 63 -62 12 0 8 27 -6 38 -6 6 -19 12 -27 14
-8 2 -18 8 -22 13 -5 6 -8 5 -8 -3z"/>
<path d="M85 349 c-4 -6 -12 -9 -19 -7 -6 2 -24 -9 -40 -24 l-29 -28 25 0 c27
0 102 53 91 64 -9 9 -21 7 -28 -5z"/>
<path d="M99 310 c-24 -16 -53 -30 -64 -31 -20 0 -20 0 0 -8 11 -5 29 -4 40 2
11 6 20 9 20 7 0 -2 9 1 20 7 11 6 17 15 13 19 -4 4 0 13 10 20 33 25 5 14
-39 -16z"/>
<path d="M1890 318 c0 -17 61 -59 73 -51 9 6 -18 32 -55 54 -13 7 -18 6 -18
-3z"/>
<path d="M1648 288 c27 -30 28 -38 2 -38 -17 0 -19 -3 -11 -17 5 -10 19 -28
31 -40 20 -22 29 -23 160 -23 87 0 140 4 140 10 0 6 -40 10 -101 10 -84 0
-105 3 -129 20 -15 11 -31 16 -35 12 -5 -4 -5 -2 -1 5 3 6 2 14 -4 18 -5 3
-14 14 -20 25 -8 15 -7 17 10 13 11 -3 20 0 20 6 0 6 -13 10 -28 9 -15 -1 -34
2 -42 7 -8 4 -5 -3 8 -17z"/>
<path d="M1715 250 c19 -21 45 -27 45 -9 0 5 -5 7 -10 4 -6 -3 -13 1 -16 9 -3
9 -13 16 -22 16 -13 0 -12 -3 3 -20z"/>
<path d="M970 232 c0 -22 4 -31 11 -26 6 3 21 1 34 -6 25 -13 60 -7 51 9 -3 5
-21 12 -41 15 -19 4 -39 14 -44 24 -9 14 -10 11 -11 -16z"/>
<path d="M63 203 c37 -2 97 -2 135 0 37 2 6 3 -68 3 -74 0 -105 -1 -67 -3z"/>
<path d="M1813 203 c32 -2 81 -2 110 0 29 2 3 3 -58 3 -60 0 -84 -1 -52 -3z"/>
<path d="M43 113 c26 -2 67 -2 90 0 23 2 2 3 -48 3 -50 0 -68 -1 -42 -3z"/>
<path d="M227 113 c24 -2 62 -2 85 0 24 2 5 4 -42 4 -47 0 -66 -2 -43 -4z"/>
<path d="M1623 113 c64 -2 170 -2 235 0 64 1 11 3 -118 3 -129 0 -182 -2 -117
-3z"/>
<path d="M230 93 c136 -2 239 -8 244 -13 7 -7 -74 -10 -232 -10 -133 0 -242
-4 -242 -9 0 -11 651 -12 690 -1 17 5 32 5 35 0 3 -5 22 -8 43 -6 30 2 36 6
34 22 -3 18 -3 18 12 -1 8 -11 16 -14 16 -7 0 6 6 12 14 12 8 0 18 5 21 10 4
7 -142 9 -432 8 -246 -2 -335 -4 -203 -5z"/>
<path d="M887 75 c5 -25 -11 -36 -20 -12 -8 17 -27 -12 -20 -30 3 -7 -2 -13
-12 -13 -9 0 -13 5 -10 10 3 6 2 10 -3 10 -5 0 -12 -9 -15 -19 -4 -17 0 -19
27 -18 17 2 37 6 44 10 7 5 12 4 12 -2 0 -6 7 -11 16 -11 22 0 16 94 -7 98
-13 2 -15 -3 -12 -23z"/>
<path d="M986 93 c-3 -3 -5 -27 -4 -52 l1 -46 7 45 7 45 2 -45 c3 -38 4 -41
11 -20 8 24 8 24 9 3 1 -20 6 -23 42 -23 38 0 41 2 35 24 -5 22 -3 24 49 31
42 5 55 11 56 23 0 12 3 11 9 -6 11 -25 14 -26 40 -12 12 6 21 7 25 0 7 -11
695 -10 695 2 0 4 -118 8 -262 8 -172 0 -259 3 -252 10 6 6 115 11 264 13 140
1 34 3 -236 4 -270 1 -494 -1 -498 -4z m88 -19 c9 -3 13 -11 9 -18 -4 -6 -8
-14 -8 -18 0 -20 -20 -5 -23 17 -4 27 -2 28 22 19z"/>
<path d="M30 33 c19 -2 40 -9 45 -16 7 -9 69 -12 217 -12 113 0 201 3 195 7
-19 11 18 20 60 15 21 -3 47 -1 58 3 11 5 -121 8 -295 8 -173 -1 -299 -3 -280
-5z"/>
<path d="M728 31 c8 -4 13 -12 12 -17 0 -5 9 -11 22 -12 18 -3 20 -1 10 10 -6
8 -9 18 -5 21 3 4 -7 7 -23 7 -20 0 -25 -3 -16 -9z"/>
<path d="M1127 20 c-4 -15 0 -20 14 -20 10 0 19 7 19 14 0 11 15 16 53 19 50
3 49 3 -14 5 -59 2 -67 0 -72 -18z"/>
<path d="M1273 34 c4 -4 30 -8 59 -8 36 -1 52 -6 51 -14 -2 -7 6 -12 18 -12
11 0 18 3 16 8 -3 4 96 5 220 2 168 -4 227 -2 235 7 5 7 31 14 56 16 26 2
-112 4 -307 5 -195 1 -351 -1 -348 -4z"/>
</g>
</svg>
