<svg width="1090" height="80" viewBox="0 0 1090 80" xmlns="http://www.w3.org/2000/svg">
	<g id="svgGroup" stroke-linecap="round" fill-rule="evenodd" font-size="9pt" stroke="#000" stroke-width="0.25mm" fill="none" style="stroke:#000;stroke-width:0.25mm;fill:none">
		<path d="M 20 70 L 0 70 L 0 0 L 20 0 L 20 30 L 50 30 L 50 0 L 70 0 L 70 70 L 50 70 L 50 40 L 20 40 L 20 70 Z" id="0" vector-effect="non-scaling-stroke"/>
		<path d="M 140 70 L 90 70 L 90 60 L 80 60 L 80 30 L 90 30 L 90 20 L 140 20 L 140 30 L 150 30 L 150 50 L 100 50 L 100 60 L 140 60 L 140 70 Z M 100 30 L 100 40 L 130 40 L 130 30 L 100 30 Z" id="1" vector-effect="non-scaling-stroke"/>
		<path d="M 220 80 L 170 80 L 170 70 L 210 70 L 210 60 L 170 60 L 170 50 L 160 50 L 160 20 L 180 20 L 180 50 L 210 50 L 210 20 L 230 20 L 230 70 L 220 70 L 220 80 Z" id="2" vector-effect="non-scaling-stroke"/>
		<path d="M 270 80 L 250 80 L 250 70 L 260 70 L 260 50 L 280 50 L 280 70 L 270 70 L 270 80 Z" id="3" vector-effect="non-scaling-stroke"/>
		<path d="M 470 70 L 410 70 L 410 60 L 430 60 L 430 10 L 410 10 L 410 0 L 470 0 L 470 10 L 450 10 L 450 60 L 470 60 L 470 70 Z" id="5" vector-effect="non-scaling-stroke"/>
		<path d="M 520 30 L 500 30 L 500 0 L 520 0 L 520 30 Z" id="6" vector-effect="non-scaling-stroke"/>
		<path d="M 570 70 L 560 70 L 560 20 L 620 20 L 620 30 L 630 30 L 630 70 L 610 70 L 610 30 L 600 30 L 600 70 L 580 70 L 580 30 L 570 30 L 570 70 Z" id="7" vector-effect="non-scaling-stroke"/>
		<path d="M 740 70 L 720 70 L 720 0 L 740 0 L 740 10 L 750 10 L 750 20 L 760 20 L 760 10 L 770 10 L 770 0 L 790 0 L 790 70 L 770 70 L 770 30 L 760 30 L 760 50 L 750 50 L 750 30 L 740 30 L 740 70 Z" id="9" vector-effect="non-scaling-stroke"/>
		<path d="M 870 70 L 810 70 L 810 60 L 830 60 L 830 30 L 820 30 L 820 20 L 850 20 L 850 60 L 870 60 L 870 70 Z M 850 10 L 830 10 L 830 0 L 850 0 L 850 10 Z" id="10" vector-effect="non-scaling-stroke"/>
		<path d="M 910 20 L 910 30 L 920 30 L 920 40 L 910 40 L 910 70 L 890 70 L 890 20 L 910 20 Z M 920 30 L 950 30 L 950 20 L 920 20 L 920 30 Z" id="11" vector-effect="non-scaling-stroke"/>
		<path d="M 1020 70 L 970 70 L 970 60 L 960 60 L 960 30 L 970 30 L 970 20 L 1020 20 L 1020 30 L 1030 30 L 1030 60 L 1020 60 L 1020 70 Z M 980 30 L 980 60 L 1010 60 L 1010 30 L 980 30 Z" id="12" vector-effect="non-scaling-stroke"/>
		<path d="M 1080 50 L 1060 50 L 1060 0 L 1090 0 L 1090 30 L 1080 30 L 1080 50 Z M 1080 70 L 1060 70 L 1060 60 L 1080 60 L 1080 70 Z" id="13" vector-effect="non-scaling-stroke"/>
	</g>
</svg>